<svg xmlns="http://www.w3.org/2000/svg" width="500" height="500"><path fill="#f5f6f6" d="m250-62.5 8.788-.015C490.89-62.112 562.897 21.39 562.5 250l.015 8.788C562.112 490.89 478.61 562.897 250 562.5l-8.788.015C9.11 562.112-62.897 478.61-62.5 250l-.015-8.788C-62.112 9.11 21.39-62.897 250-62.5"/><path fill="#f64338" d="M330.137 41.465c27.733 4.999 19.11 40.373 16.55 61.752C344 109 344 109 336.272 108.924c-11.43.12-7.282 5.245-7.272 15.076-17.587 7.838-61.138 12.994-71.56-6.74-2.852-14.238-8.56-57.018 8.627-63.033 5.78.273 5.78.273 11.535 1.554 2.622.13 33.75-15.178 52.535-14.316"/><path fill="#f44236" d="M135 134v9l8.245-.38c21.27.924 15.353 46.518 12.297 62.538C145.177 225.18 100.658 220.116 83 212c-.318-8.25-.318-8.25 0-16H73c-19.654-52.785 9.896-80.361 62-62"/><path fill="#f74337" d="M279.854 346.983C297.988 355.885 293.1 396.296 286 412c-4.666.103-9.335.11-14 0l.055 5.283c-.155 16.181-49.229 11.261-61.293 9.115-20.507-10.305-14.47-53.559-6.762-71.398 7.536-3.035 11.796-1.54 20 0 0-13.527 45.274-9.767 55.854-8.017"/><path fill="#1863b1" d="M450 290c3.827 13.396 1.831 22.944-6 34l-5 8c-14.022 18.696-36.88 22.281-55 6-17.45-22.297-7.033-44.23 15-58l5-4c18.932-9.466 35.13-3.393 46 14M264 218c1.593 26.816-15.868 41.363-42 40-7.622-2.304-11.402-5.051-18-10l-7-4c-16.043-15.807-14.778-36.689 2-51 24.782-11.014 57.07-2.754 65 25"/><path fill="#1963b1" d="M13.438 23.938C18 26 18 26 19 27l6.438.813C50.253 31.709 62.18 49.823 56.563 74.25 47.615 94.328 25.806 102.321 6 92-4.744 83.047-.936 67.41-.875 54.188l-.121-9.327.004-8.818-.011-8.156c1.632-9.575 6.811-6.668 14.44-3.95"/><path fill="#f64136" d="M494.357 402.41c13.268 6.09 10.069 27.253 9.893 40.09l.033 5.313c-.085 25.282-3.835 42.383-32.485 40.777C450.357 483.386 451.86 464.92 452 446l.008-9.793c1.11-21.066 2.108-27.995 23.992-24.207 0-11.654 8.349-9.88 18.357-9.59"/><path fill="#1862b0" d="M244 478c.542 22.763.542 22.763-18.348 22.727l-4.961.003q-5.202-.008-10.403-.058a1409 1409 0 0 0-15.993-.027C167 500.554 167 500.554 167 486c3.909-11.726 7.459-17.62 18-24l5-3.687c20.38-13.503 47.874-4.818 54 19.687"/><path fill="#0b0403" d="M330.137 41.465c27.733 4.999 19.11 40.373 16.55 61.752C344 109 344 109 336.272 108.924c-11.43.12-7.282 5.245-7.272 15.076-17.587 7.838-61.138 12.994-71.56-6.74-2.852-14.238-8.56-57.018 8.627-63.033 5.78.273 5.78.273 11.535 1.554 2.622.13 33.75-15.178 52.535-14.316M267 118c16.266 10.07 48.286 12.461 59.555-5.742 7.736-25.193 6.003-52.698-23.735-57.04C265.487 54.175 245.43 83.157 267 118"/><path fill="#ef4338" d="M29.484 398.246C43.445 405.956 41.423 421.83 41.25 436l-.09 8.927C39.92 468.035 39.92 468.035 24 467l.625 6.5c-1.055 10.973-9.424 9.33-19.03 9.072-13.164-6.052-9.72-27.344-9.47-40.072l-.004-5.319c.162-23.981 3.91-47.067 33.363-38.935"/><path fill="#0d0c0c" d="M135 134v9l8.245-.38c21.27.924 15.353 46.518 12.297 62.538C145.177 225.18 100.658 220.116 83 212c-.318-8.25-.318-8.25 0-16H73c-19.654-52.785 9.896-80.361 62-62m-46 72c16.557 10.25 49.148 12.684 60.618-5.845 7.875-25.643 6.11-53.639-24.158-58.057-38-1.063-58.415 28.436-36.46 63.902"/><path fill="#150909" d="M279.854 346.983C297.988 355.885 293.1 396.296 286 412c-4.666.103-9.335.11-14 0l.055 5.283c-.155 16.181-49.229 11.261-61.293 9.115-20.507-10.305-14.47-53.559-6.762-71.398 7.536-3.035 11.796-1.54 20 0 0-13.527 45.274-9.767 55.854-8.017M210 417c16.266 10.07 48.286 12.461 59.555-5.742 7.736-25.193 6.003-52.698-23.735-57.04-37.333-1.044-57.39 27.938-35.82 62.782"/><path fill="#0c0c0c" d="M450 290c3.827 13.396 1.831 22.944-6 34l-5 8c-14.022 18.696-36.88 22.281-55 6-17.45-22.297-7.033-44.23 15-58l5-4c18.932-9.466 35.13-3.393 46 14m-69 30c7.243 19.314 21.507 26.498 41 20 15.324-10.216 21.233-27.723 10-44-21.744-20.145-53.99-6.569-51 24"/><path fill="#010613" d="M264 218c1.593 26.816-15.868 41.363-42 40-7.622-2.304-11.402-5.051-18-10l-7-4c-16.043-15.807-14.778-36.689 2-51 24.782-11.014 57.07-2.754 65 25m-62 14c8.52 17.041 22.052 25.613 41.125 17.938 17.097-12.961 20.796-31.7 5.563-47.375C223.954 183.765 200.312 204.996 202 232"/><path fill="#090908" d="M326 273c-2.126 7.21-4.41 14.348-6.793 21.477l-2.158 6.464-2.236 6.684-2.272 6.8Q309.772 322.714 307 331c-8.24-7.062-15.867-14.605-23.562-22.25l-4.58-4.492c-11.09-11.025-11.09-11.025-8.858-13.258a337 337 0 0 1 10.484-3.625l6.461-2.14L293.75 283l6.758-2.234q6.217-2.055 12.436-4.102C324.076 273 324.076 273 326 273"/><path fill="#020202" d="M422 62a982 982 0 0 1 7 21.125l1.906 5.906c2.78 8.634 5.508 17.275 8.094 25.969-9.614-2.136-18.717-5.21-28-8.437l-10.125-3.497L392 100l-9-3c0-7.658 12.668-16.274 17.813-21.437 1.691-1.738 3.383-3.475 5.126-5.264l4.893-4.92 4.523-4.576C419 58 419 58 422 62"/><path fill="#0d0c0a" d="M123 56q3.765 3.65 7.465 7.367l4.17 4.18 4.303 4.328 4.384 4.398Q148.664 81.634 154 87c-4.447 2.965-9.273 4.201-14.344 5.879l-6.902 2.29-7.254 2.394-7.254 2.404Q109.126 102.989 100 106l-3 1c2.653-10.613 6.108-20.916 9.5-31.312l2.09-6.463 2.004-6.15 1.834-5.639C115.28 49.384 115.28 49.384 123 56"/><path fill="#1963b1" d="M500.454 27.875 500.391 36l-.04 8.75-.101 9.25-.055 9.25Q500.124 74.626 500 86l-3-2-4.625-1.187C472.231 76.02 465.331 54.347 475 36c4.673-6.322 24.266-23.497 25.454-8.125"/><path fill="#f0473d" d="M330.137 41.465c27.733 4.999 19.11 40.373 16.55 61.752-4.15 8.931-8.724 7.74-17.687 5.783-.957-4.865-.957-4.865.188-11.594l.88-7.256.932-7.65c1.75-23.132-1.208-31.178-25.5-29.187-6.448.831-12.807 1.719-19.186 2.981-18.135-1.236 31.449-15.397 43.823-14.83"/><path fill="#f7f2f2" d="M282 62c.975 7.868-.63 15.67-1.625 23.5-1.525 19.481.572 27.675 22.125 25.875a798 798 0 0 0 11.531-1.602C323 109 323 109 323 118c-18.585 6.907-55.513 11.89-60.246-12.504C259.746 51.941 259.746 51.941 282 62"/><path fill="#090805" d="M311 457c5.147 4.412 9.915 8.799 14.684 13.586l4.306 4.316 4.447 4.473 4.53 4.543Q344.487 489.457 350 495c-11.067 5.534-20.948 5.348-33 5.188l-5.816-.042c-4.728-.035-9.456-.089-14.184-.146 2.416-9.408 5.505-18.514 8.688-27.687l3.011-8.7z"/><path fill="#010610" d="M169 0h72c-7.422 22.266-39.257 26.33-58 18-7.333-4.889-11.2-9.6-14-18"/><path fill="#d69db9" d="m296 159-.562 6.5c-.417 7.773-.417 7.773 8.062 6.313 7.5.187 7.5.187 7.438 8.187.097 12.504 5.395 8.083 16.062 8a300 300 0 0 1 0 15c6.5.75 6.5.75 13 0 0 10.725-9.35 6.18-18 6-.496 4.327-.496 4.327 7.5 2 12.52 1.67 8.974 9.329 7.5 20-6 0-6 0-5.437-6.5.416-7.773.416-7.773-8.063-6.312C316 218 316 218 316.063 210c-.098-12.504-5.396-8.083-16.063-8a300 300 0 0 1 0-15c-6.5-.667-6.5-.667-13 0 0-11.909 8.187-7.34 18-7 .33-3.31.33-3.31-7.5-.937C286.024 177.437 283.608 159 296 159"/><path fill="#f0f2f4" d="M36 36c17.95 13.462 22.09 29.893 7 48-12.044 7.528-21.87 8.565-35 2-1-3-1-3 3.938-4.75C31.794 73.88 35.353 55.382 28 37c0-2 0-2 8-1"/><path fill="#de99ba" d="M191 290c.167 5.998.167 12.002 0 18 3.389.33 3.389.33.938-8 1.724-12.984 8.852-9.622 20.062-8 0 6 0 6-6.5 5.375-7.853-.335-7.853-.335-6.312 8.625-.293 12.466-5.505 8.083-16.188 8v7.5c0 11.973-5.859 7.658-16 7.5-.917 6.5-.917 6.5 0 13-9.288 0-5.108-9.647-5-17-4.322-.496-4.322-.496-2.062 7.5-1.533 12.256-8.42 9.034-18.938 7.5 0-6 0-6 6-5.375 7.358.242 7.358.242 5.75-8.625.389-12.447 5.559-8.084 16.25-8v-7.5c0-11.973 5.859-7.658 16-7.5 1.25-13 1.25-13 6-13"/><path fill="#ee4439" d="M279.854 346.983C297.988 355.885 293.1 396.296 286 412c-13.52 3.037-13.52 3.037-14.828-5.232.38-2.388.758-4.776 1.148-7.237 6.466-34.297 6.466-34.297-17.457-48.295-8.923.668-17.67 1.728-26.457 3.427-6.971.533 34.557-10.474 51.448-7.68"/><path fill="#ef473c" d="M135 134c0 9 0 9-4.773 9.18l-6.602-1.164c-33.067-5.724-33.067-5.724-43.793 19.92.704 9.81 1.805 19.506 3.478 29.199C83 196 83 196 73 196c-19.654-52.785 9.896-80.361 62-62"/><path fill="#f0e7e7" d="M146 149c6.083 14.782 11.098 51.373-5.643 59.86-15.922 2.865-36.119 3.08-51.357-2.86 0-10 0-10 4.223-10.39l5.84 1.066c29.267 5.23 29.267 5.23 38.634-17.464-.66-8.701-1.687-17.306-3.216-25.898.899-7.474 5.323-5.853 11.519-4.314"/><path fill="#0c0c0a" d="M14 300a702 702 0 0 1 6.813 19.5l1.869 5.52A1271 1271 0 0 1 33 357c-6.4-1.6-12.505-3.412-18.75-5.5l-5.547-1.844C-2.522 345.703-.76 341.326-1 329.625l-.312-9.086C-.18 313.164 4.313 300 14 300"/><path fill="#0e0e0e" d="M8 22c9.321 3.321 9.321 3.321 11 5l6.438.813C50.253 31.709 62.18 49.823 56.563 74.25 47.615 94.328 25.806 102.321 6 92c-6-5-6-5-6-14 4 3 4 3 4 5h2v2l5 2 5 2c25.138 1.207 36.309-10.325 35-35-6.525-16.516-22.879-23.346-39.437-16.875C6.383 40.235 6.383 40.235 0 46c-.214-3.998-.37-7.999-.5-12l-.281-6.75C0 22 0 22 8 22"/><path fill="#f74438" d="M18 418c3.043 9.397 2.5 18.707 2.25 28.5.07 2.719.14 5.437.21 8.238-.174 19.357-.174 19.357-11.46 23.825-14.923-5.907-11.623-17.486-11.25-32.063-.07-2.719-.14-5.437-.21-8.238C-2.32 422.486-1.2 410.4 18 418"/><path fill="#040813" d="M244 478c.524 22 .524 22-9 22l3-9c1.834-23.051-13.947-33.606-35-32-17.968 8.984-23.619 21.696-17 41-19 .531-19 .531-19-14 3.909-11.726 7.459-17.62 18-24l5-3.687c20.38-13.503 47.874-4.818 54 19.687"/><path fill="#070000" d="m488 403.75 6.75-.266c8.508 2.456 7.627 6.848 5.25 14.516-8.312-.734-8.312-.734-13.526-1.752-24.896-4.54-28.803 7.175-29.224 30.252.608 33.255 14.022 33.738 42.75 28.5 0 11.597-25.034 10.205-34.125 9.691-17.06-4.336-13.98-24.298-13.875-38.691l.008-9.81c1.113-21.06 2.117-27.976 23.992-24.19 0-10.106 2.815-8.101 12-8.25"/><path fill="#f7f0ef" d="M224 361c.923 4.682.923 4.682-.11 11.156l-.792 6.984-.848 7.36c-1.44 20.153-.086 30.149 22.75 28.375q5.917-.705 11.813-1.57C266 412 266 412 266 417c-19.038 5.393-55.415 12.587-60.21-12.488-2.608-48-2.608-48 18.21-43.512"/><path fill="#f7f7f6" d="M476 418c1.208 4.498 1.208 4.498.523 10.719l-.464 6.699a870 870 0 0 1-1.485 14.164c-1.115 16.167-1.115 16.167 13.465 18.45l6.733-.952C500 467 500 467 500 475c-12.25 4.105-34.336 10.183-40.025-5.63-1.08-7.731-1.327-15.063-1.225-22.87l.09-8.222c1.382-23.61 1.382-23.61 17.16-20.278"/><path fill="#1d62ae" d="M452 297c0 9.199-.169 23.084-10 28l.25-8.875C442.192 289.97 423.096 277.817 398 282c17.258-21.572 47.246-8.638 54 15"/><path fill="#edeff1" d="m391 294-.25 7.25c.727 25.46 17.497 31.252 40.25 30.75-13.507 16.209-31.204 12.98-45-1-4.26-7.455-10.757-37 5-37"/><path fill="#eee" d="m132.75 73.5 5.797 5.781C143 84 143 84 143 86c-5.59 1.974-11.225 3.828-16.875 5.625l-9.492 3.04C109 97 109 97 107 97c.988-7.904 2.95-14.41 5.5-21.937l2.469-7.34c4.55-12.82 11.103-.92 17.781 5.777"/><path fill="#f0efeb" d="M418 69c2.003 5.378 3.876 10.804 5.688 16.25l3.074 9.14C429 102 429 102 428 106c-6.05-1.619-11.794-3.426-17.687-5.5l-5.096-1.687C392.749 94.503 392.749 94.503 395 90a523 523 0 0 1 10.5-10.75l5.781-5.797C416 69 416 69 418 69"/><path fill="#82c6bf" d="m379 392.313 7.516-.124 7.109-.013 6.602-.034C405 393 405 393 405 400c-5.031.543-5.031.543-11.5.188-8.657-1.739-8.657-1.739-11.5 3.812-8.443 1.02-17.003.694-25.5.688-2.432.04-4.865.08-7.371.123l-6.973.013-6.474.034C331 404 331 404 331 397c4.813-.543 4.813-.543 11-.187 12.405.665 20.803-4.513 37-4.5"/><path fill="#f4f3e2" d="M316 283c-1.43 7.146-3.653 13.979-5.812 20.938l-2.645 8.652C305 319 305 319 301 317a523 523 0 0 1-10.75-10.5l-5.797-5.781C280 296 280 296 280 294c5.402-1.976 10.848-3.83 16.313-5.625l9.175-3.04C313 283 313 283 316 283"/><path fill="#f9f56b" d="M406 104a1933 1933 0 0 0 11.813 3.75L428 111l-3 3 3 7v6c-6.918-1.65-13.32-3.495-20-6l-8-2-5.125-2.062c-4.955-2.169-4.955-2.169-10.875-2.938-4.87-14.612 14.75-12.637 22-10"/><path fill="#140404" d="M18.445 409.664c12.89 5.42 8.893 24.508 8.555 36.336l.281 9.828c-.195 19.366-1.073 28.237-22.136 25.856C0 480 0 480 0 475l8.86 1.469c15.854-2.548 11.744-16.132 11.39-29.969.07-2.719.14-5.437.21-8.238C20.302 420.579 19.508 414.904 0 418c0-10.649 9.577-8.555 18.445-8.336"/><path fill="#1b61ac" d="M224 189c0 2 0 2-4.5 3.25-23.627 7.518-27.306 31.898-17.5 51.75l1 3c-16.721-6.689-20.751-25.8-15-41.437 9.243-14.058 19.346-17.403 36-16.563"/><path fill="#f1f1f0" d="M317 471c3.731 3.41 7.389 6.9 11 10.438l5.938 5.746C338 492 338 492 334 495c-10.694 4.645-19.388 5.476-31 5 8-32 8-32 14-29"/><path fill="#7bb4ad" d="m352.156 406.176 6.973.013 7.371.123 7.371-.005C392 406.454 392 406.454 392 411h9c0 9.84-1.976 7.872-10.937 7.824l-6.836-.013-7.227-.123-7.227.005C351 418.546 351 418.546 351 414h-10c0-9.91 2.132-7.872 11.156-7.824"/><path fill="#83afab" d="M413 176c.858 4.59.858 4.59.824 10.938l-.013 6.835-.123 7.227.005 7.227C413.546 226 413.546 226 409 226v10c-9.91 0-7.872-2.132-7.824-11.156l.013-6.973.123-7.371-.005-7.371C401.454 185 401.454 185 406 185c0-9 0-9 7-9"/><path fill="#f2f069" d="M116 39a624 624 0 0 1 11.75 11.5l6.36 6.344C139 62 139 62 139 64l4 2c0 3 0 3-6 5-4.89-4.25-4.89-4.25-10.25-10-5.275-7.557-5.275-7.557-11.75-8a745 745 0 0 0-5.125 15.625l-2.758 8.664L105 84l-1-2-6 2c4.429-31 4.429-31 10-31l1-9c3-7 3-7 7-5"/><path fill="#eeeff0" d="M240 198c16.375 6.55 22.125 22.125 15.938 38.438C246.709 250.77 237.11 252.755 221 252c0-2 0-2 6.188-4.375C248.142 239.55 251.054 219.055 241 201z"/><path fill="#2d2121" d="M327 57c-1 5-1 5-3 5 .552 4.165 1.184 8.32 1.844 12.469 4.314 36.448 1.089 52.519-39.084 51.433C252.904 121.096 260.754 88.548 266 62c2.142 0-.75 11.464-.871 12.25-4.06 35.253-1.387 51.62 37.738 50.531 30.311-4.418 29.625-32.046 22.911-57.29-7.26-14.352-25.735-8.851-38.696-6.315C283.93 61.687 267 63.58 267 60l6.5.063c6.833 1.017 6.833 1.017 6.5-2.063-19.706-5.117-20.169 6.205-21.744 22.769-1.677 48.614 18.585 49.326 62.869 43.722 8.484-3.597 6.978-6.963 5.875-15.491 4.123 0 1.205 12.464 1 14-22.473 9.78-64.337 12.67-72.668-14.75C247.07 50.49 278.782 48.536 327 57"/><path fill="#080606" d="m215 55-4.25 3.75c-5.381 4.685-5.381 4.685 2.25 11.25 4 5 4 5-1.125 9.875-6.701 5.343-6.701 5.343 1.125 12.125 6.102 7.628 1.209 8.04-5 14 .546 5.516.546 5.516 6 9-1 4-1 4-4 6-13.749-12.251-13.749-12.251-3-23-2.21-4.949-2.21-4.949-9-11 2-4 2-4 9-11-2.21-4.949-2.21-4.949-9-11 1.761-7.045 10.743-19.386 17-10"/><path fill="#080607" d="M100 392c4.47-.73 4.47-.73 7.938-5.25 6.82-6.296 9.21-.602 15.062 5.25 4.606-.722 4.606-.722 8-6 4 1 4 1 6 4-12.251 13.749-12.251 13.749-23 3-4.316 1.895-4.316 1.895-8 6h-2l-1 3c-4-2-4-2-11-9-4.498.715-4.498.715-7.812 5.438C76.6 404.892 72.77 395.77 67 390c2-4 2-4 5-4l7 7c11.846-10.154 11.846-10.154 21-1"/><path fill="#74aea8" d="M108 242c.578 6.781.578 6.781.25 15.5-1.777 9.96-1.777 9.96 2.75 15.5.76 8.133.509 16.336.5 24.5l.086 7.082.008 6.7.021 6.22C111 322 111 322 106 322c-.374-7.848.022-15.588.313-23.437.742-7.395.742-7.395-5.313-6.563-1.22-8.248-.786-16.674-.75-25l-.11-7.227v-6.836l-.014-6.347C101 242 101 242 108 242"/><path fill="#e097bc" d="m9 224-.25 8c.357 11.429 3.231 8.963 13.25 8 0 6 0 6-9 6-.664 5.401-.664 5.401 8 3.25 12.255 1.149 8.336 6.002 8 16.75 6 .833 6 .833 12 0 0 11.242-9.472 7.303-18 6a512 512 0 0 1 0-16c-8-.5-8-.5-16 0v-10H3q-.063-8 0-16H0c0-6 0-6 9-6"/><path fill="#0e0b0c" d="M190 290c2.253 17.122 1.848 19.562-15 19l.063 7.5C175 324 175 324 167 323.938c-9.354-1.26-9.354-1.26-7.875 8.062-.204 13.031-7.283 9.656-18.125 8 0-6 0-6 6-5.375 7.358.242 7.358.242 5.75-8.625.389-12.447 5.559-8.084 16.25-8v-7.5c0-11.973 5.859-7.658 16-7.5 1.375-13 1.375-13 5-13"/><path fill="#0a0303" d="M270 357c8.444 13.832 3.818 33.101 0 48h-1l2.012-9.371c5.47-33.997-7.142-40.142-40.533-40.46-34.643 3.25-27.39 35.954-21.479 62.831 4.08 2.04 9.574 1.222 14.008 1.281l7.363.114 15.531.21 7.356.114 6.817.092C265 420 265 420 265 421c-35.17 7.332-65.305 11.439-66.687-32 .862-40.512 37.904-49.761 71.687-32"/><path fill="#f7f46c" d="m322 283 1 3 7-2h5c-1.65 6.918-3.495 13.32-6 20l-2 8c-5.514 15.838-5.514 15.838-9 17-5-5-5-5-6-8h-2c2.23-8.521 4.878-16.84 7.688-25.187l2.449-7.293z"/><path fill="#010715" d="M443 306c.501 9.313.294 15.217-3 24l-1-2-4 4h-3l2-4c6.776-20.327.154-34.282-20-41-10.775-.99-16.978 2.587-26 8l-5 2c2-4 2-4 7-9l1-3c21.504-9.373 45.119-3.944 52 21"/><path fill="#050304" d="M306 181c.167 5.33.167 10.67 0 16q7.5.063 15 0l-.062 7.5c-1.176 8.873-1.176 8.873 8.062 7.25 13.3.416 9.592 8.253 8 19.25-6 0-6 0-5.437-6.5.416-7.773.416-7.773-8.063-6.312C316 218 316 218 316.063 210c-.098-12.504-5.396-8.083-16.063-8a300 300 0 0 1 0-15c-6.5-.75-6.5-.75-13 0 0-11.505 10.401-7.245 19-6"/><path fill="#7bcac1" d="M128 451c-3.14 3.457-6.442 6.767-9.812 10-6.724 5.72-6.724 5.72-11.188 13h2c-3.064 6.129-7.804 10.349-12.562 15.25l-5.817 6.078C85 500 85 500 76 500c6-7 6-7 10.5-11.187 4.39-3.59 4.39-3.59 1.5-7.813 2.83-3.591 2.83-3.591 7.102-7.863l4.613-4.623 4.91-4.827 4.84-4.884C123.748 444.622 123.748 444.622 128 451"/><path fill="#e8e8e7" d="M12 312c2.051 5.41 3.942 10.88 5.75 16.375 1.005 3.019 2.01 6.038 3.047 9.148C23 345 23 345 22 348c-4.656-1.203-4.656-1.203-10.5-3.25l-5.844-2.016C-4.017 339.131-1.1 328.886 0 320c7.138-9.62 7.138-9.62 12-8"/><path fill="#1962ae" d="m196.719-.098 6.699.01 7.082.025 7.082.014Q226.291-.03 235 0c-9.985 14.978-26.804 18.992-42 9-8.818-9.086-8.585-9.129 3.719-9.098"/><path fill="#7cc8bf" d="M102 453c0 7.621-8.777 12.666-14.062 17.617-4.606 4.145-4.606 4.145-3.938 10.383-3.84 4.742-3.84 4.742-8.937 9.875l-5.028 5.18C65 500 65 500 56 500l6-7c4.688-4.501 4.688-4.501 3-9 4.914-6.056 10.65-11.39 16.188-16.875l4.681-4.766 4.486-4.476 4.146-4.144C98 451 98 451 102 453"/><path fill="#d399b6" d="m413 472-.062 7.5c.1 11.954 5.912 7.659 16.062 7.5 3.025 7.864 3.565 12.13-5.406 14.32-20.207.934-20.207.934-18.594-14.32-6.5-.583-6.5-.583-13 0 0-10.287 7.504-6.132 16-6l1-4 2-1 1-3-7 .063c-18.274-.164 4.046-1.59 8-1.063"/><path fill="#f5f374" d="M312 449v2h2v2h2l2 4 7 6q3.505 3.995 7 8l6 5c-1 4-1 4-4 4-3.806-3.587-7.521-7.27-11.187-11l-6.106-6.187L312 458c-4.091 9.695-6.808 19.656-9.61 29.785C300 493 300 493 292 494c1.667-10 1.667-10 4-10l1-6c8.649-30.27 8.649-30.27 15-29"/><path fill="#ebeef1" d="M235 471c5.417 12.188 5.417 16.812 0 29-11.372 0-7.359-6.32-7-16-3.752-13.132-10.946-18.364-23-23l-3-2c9.563-9.563 27.45 4.451 33 12"/><path fill="#0d0d0d" d="M500 313c.074 5.5.083 11 .063 16.5l-.028 9.281L500 346c-8.567-2.142-16.694-5.015-25-8 4.931-5.753 9.957-11.091 15.313-16.437l4.863-4.872C499 313 499 313 500 313"/><path fill="#170201" d="M131 145v1l7.5.5c7.5.5 7.5.5 7.5 1.5-7.466 1.146-13.829.625-21.258-.555-24.748-2.913-40.2-4.49-38.617 24.493.551 6.293 1.255 12.487 2.243 18.726C90.066 205 90.066 205 87 205v-9h-2c-9.056-44.3.206-61.008 46-51"/><path fill="#070707" d="M216 452c23.019 5.632 33.504 25.489 26 48h-7l3-9c1.992-25.044-15.525-32.489-37-33 1-3 1-3 7-5 0-2.687 5.313-1 8-1"/><path fill="#010612" d="M8 22c9.321 3.321 9.321 3.321 11 5l6.875.938C35.455 29.366 35.455 29.366 37 34c-6 1-6 1-12.75.75C13.16 35.132 8.334 38.856 0 46c-.214-3.998-.37-7.999-.5-12l-.281-6.75C0 22 0 22 8 22"/><path fill="#1a1919" d="M475 413c0 2.244-15.204 1.013-17 1 1.404 4.298 1.404 4.298 4 4-.3 4.163-.702 8.318-1.14 12.469-5.376 35.608-5.376 35.608 20.14 47.844 6.391-.897 12.66-2.083 19-3.313 0 9.663-25.4 8.954-33.355 8.523-16.64-4.149-13.592-23.52-13.457-37.523l.046-9.522c1.558-28.38 1.558-28.38 21.766-23.478"/><path fill="#4b2d2c" d="M136 143c-1.94 3.88-8.454.977-12.035.402-31.393-4.946-31.393-4.946-42.43 19.102.52 9.114 1.367 18.092 2.785 27.111C85 196 85 196 83.694 204.048c.818 18.572 46.962 13.015 60.719 10.414 21.093-11.087 9.515-52.216 6.587-71.462 7.041 0 5.328 55.227 4.284 61.925C144.324 228.535 101.52 223.58 83 212c-29.96-51.425 4.649-79.882 53-69"/><path fill="#d6cac9" d="M348.039 51.368c1.918 12.502 5.693 49.9-4.039 59.632l-6.5-.812c-7.636-.139-7.636-.139-6.443 7.626-2.714 18.455-49.814 13.29-64.199 10.675C245.243 117.492 256.304 75.465 260 56c1-1 1-1 10.062-1.062 10.264.42 10.264.42 8.938-8.938 15.639-7.82 60.463-12.603 69.039 5.368M282 56c-4.398-.219-4.398-.219-10.152-1.5-22.745-1.076-17.042 38.733-16.102 54.3 6.035 30.123 43.466 20.91 67.012 17.982 7.422-2.168 7.422-2.168 6.234-10.523.012-11.434 5.21-7.356 15.008-7.259 7.377-15.878 11.972-56.879-6.15-66.145C321.463 39.902 282 35.112 282 56"/><path fill="#010818" d="M500 38c.09 3.499.107 7 .098 10.5l-.01 6.563-.026 6.937-.013 6.938Q500.03 77.469 500 86c-6.646-6.646-19.524-48 0-48"/><path fill="#74c6bd" d="m489.5 135.125 5.906-.242C500 136 500 136 500 146c-7.505.947-14.004 1.207-21.5 1l-6.215.016C457 146.813 457 146.813 457 140c4.813-.445 4.813-.445 11-.125 12.362.609 9.428-4.479 21.5-4.75"/><path fill="#79cac0" d="M126 465c4.745 7.908-.664 9.27-6.875 15-8.165 6.17-8.165 6.17-9.125 15-6.726 6.726-10.81 5.4-20 5 6.425-7.496 13.277-14.46 20.25-21.437l3.914-3.952C123.76 465 123.76 465 126 465"/><path fill="#db9cba" d="m205 115-2 4 4.5 4.5c6.273 6.273 4.296 6.978-2 12.313-5.077 4.675-5.077 4.675 2.5 11.187l2 1c-2 4-2 4-6 4-12.674-11.326-12.674-11.326-2-22-2.21-4.949-2.21-4.949-9-11 4.941-9.882 4.941-9.882 12-4"/><path fill="#070707" d="M421.164-.902C428.976.555 426.434 5.054 426 12l8-.437c13.23.723 9.598 8.394 8 19.437-6 0-6 0-5.375-6.5.336-7.844.336-7.844-8.625-6.375-12.259-.192-8-4.622-8-15.125-8-1-8-1-16 0 0-6.36 12.222-3.93 17.164-3.902"/><path fill="#141414" d="M252 204c4 4 4 4 7 10l3-3c5.511 19.289-.623 36.041-19 45h-7c4-2 4-2 9-3v-2l-7 3c-12-.466-12-.466-12-2l5.438-.25c19.137-2.187 26.826-16.577 25.562-34.75-2.315-5.552-2.315-5.552-5-10z"/><path fill="#0f0f0f" d="M422 65c4.125 6.187 5.678 14 7.938 21.063l1.63 5.052c2.556 7.939 5.081 15.883 7.432 23.885-9-2-9-2-14-4 1-2 1-2 3-2 .329-2.959.329-2.959-6-3 3-2 3-2 6-1-1.934-8.702-4.592-16.747-7.54-25.137-1.91-6.36-2.54-9.423 1.54-14.863"/><path fill="#050605" d="M149 150c5.241 21.178 14.01 58.471-14.04 63.375-47.916 2.301-47.916 2.301-50.009-11.084C86 196 86 196 89 196v10c14.54 5.624 51.636 11.208 59.651-5.54 2.241-15.182.344-30.251-2.087-45.32C146 150 146 150 149 150"/><path fill="#080406" d="m478 196-.562 6c-.325 7.279-.325 7.279 8.062 5.75 11.875.396 8.134 6.113 7.5 16.25h7c0 6 0 6-6 7.375-6-1.375-6-1.375-5.75-9.375 1.042-9.354 1.042-9.354-8.25-7.875-12.808-.2-13.832-18.125-2-18.125"/><path fill="#82c5bc" d="m354.156 382.203 6.973-.023 7.371.07 7.371-.07 13.447.044C394 383 394 383 394 389c-4.682.776-4.682.776-11.156.797l-6.973.023-7.371-.07-7.371.07-6.973-.023-6.474-.02c-13.34-2.213.07-7.554 6.474-7.574"/><path fill="#000303" d="M79 249c.776 4.682.776 4.682.797 11.156l.023 6.973-.07 7.371.07 7.371-.023 6.973-.02 6.474C79 300 79 300 73 300c-.776-4.682-.776-4.682-.797-11.156l-.023-6.973.07-7.371-.07-7.371.023-6.973.02-6.474C73 249 73 249 79 249"/><path fill="#75cac0" d="M384 183c.776 4.682.776 4.682.797 11.156l.023 6.973-.07 7.371.07 7.371-.023 6.973-.02 6.474C384 234 384 234 378 234c-.776-4.682-.776-4.682-.797-11.156l-.023-6.973.07-7.371-.07-7.371.023-6.973.02-6.474C378 183 378 183 384 183"/><path fill="#171818" d="M93 262c.776 4.59.776 4.59.797 10.938l.023 6.835-.07 7.227.07 7.227-.023 6.836-.02 6.347C93 312 93 312 87 312c-.776-4.59-.776-4.59-.797-10.937l-.023-6.836.07-7.227-.07-7.227.023-6.836.02-6.347C87 262 87 262 93 262"/><path fill="#121414" d="M394 173c.776 4.59.776 4.59.797 10.938l.023 6.835-.07 7.227.07 7.227-.023 6.835-.02 6.348C394 223 394 223 388 223c-.776-4.59-.776-4.59-.797-10.937l-.023-6.836.07-7.227-.07-7.227.023-6.835.02-6.348C388 173 388 173 394 173"/><path fill="#1c1c1c" d="m372.719 421.203 6.699-.023 7.082.07 7.082-.07 6.7.023 6.22.02C411 422 411 422 411 428c-4.498.776-4.498.776-10.719.797l-6.699.023-7.082-.07-7.082.07-6.7-.023-6.22-.02c-12.852-2.219-.098-7.553 6.22-7.574"/><path fill="#f9f66c" d="M313 294a309 309 0 0 1-3.437 11.125l-1.997 6.133L306 316l-1-2-4-2-6-7-6-5c0-5.249 21.285-11.43 24-6"/><path fill="#1e60a9" d="M169 0c10.375-1 10.375-1 16 8 6.54 6.332 12.174 9.478 21 12-12.877 8.584-27.616-4.155-35-14z"/><path fill="#070707" d="m315.813-.812 5.279.177c4.305.154 8.607.387 12.908.635-6.526 4.35-14.721 6.207-22.125 8.75l-5.426 1.902C293.12 15.238 293.12 15.238 292 13c2.892-15.07 10.272-14.669 23.813-13.812"/><path fill="#1b63ae" d="M183 463c0 4.896-2.82 8.693-5 13-2.061 8.245-.85 15.902 1 24-12.925.594-12-.538-12-14 3.706-11.117 6.46-16.185 16-23"/><path fill="#d99bba" d="M151 391v2l3.75-3.5C159 386 159 386 163 386c3.61 7.219-4.652 10.416-10 15-4-2-4-2-11-9-4.347 1.835-4.347 1.835-7.5 6.25C131 402 131 402 127 400l6-7c3.596-3.553 3.596-3.553 2-6 7.793-6.234 9.284-2.716 16 4"/><path fill="#f7f46b" d="M482 340c20.089 5.86 20.089 5.86 18 18-8 0-8 0-15-3l-9-3c2-4 2-4 6-6z"/><path fill="#77bdb5" d="M97 293c.99 8.277.648 16.671.625 25l.098 7.227c0 2.255.002 4.511.004 6.836l.018 6.347C97 343 97 343 91 343c-.445-6.527-.445-6.527-.125-14.937 1.8-10.343 1.8-10.343-3.875-16.063h6c.25-19 .25-19 4-19"/><path fill="#7ac5bd" d="M83 280c.99 8.445.648 17.005.625 25.5l.098 7.371c0 2.301.002 4.602.004 6.973l.018 6.474C83 331 83 331 77 331c-.656-6.781-.656-6.781-.5-15.5.03-2.877.062-5.754.094-8.719C77 300 77 300 79 300c.065-5.218-.14-10.41-.32-15.625C79 280 79 280 83 280"/><path fill="#f8f46c" d="M10 349c10.594 3.531 12 6.182 12 17-6 0-6 0-6-2l-8-1.25c-12.608-4.334-13.5-18.452 2-13.75"/><path fill="#3e3e3e" d="M210 361q-.944 6.126-1.906 12.25c-3.594 30.615-5.28 49.186 30.406 47.563 18.472.562 18.472.562 28.5-8.813h1l1-6c2.674 0 2.263 4.877 2.934 7.465-3.571 13.915-19.577 8.805-31.872 8.098-2.853-.1-5.706-.198-8.646-.3-22.542-.886-22.542-.886-22.549-15.927l-.004-7.774.012-8.187-.012-8.21.004-7.767.004-7.197C209 361 209 361 210 361"/><path fill="#090c0b" d="m364.938 393.336 6.835-.02 7.227.059 7.227-.059 6.836.02 6.347.017C404 394 404 394 404 399c-4.59.647-4.59.647-10.937.664l-6.836.02-7.227-.059-7.227.059-6.836-.02-6.347-.017c-12.951-1.826.72-6.296 6.348-6.311"/><path fill="#73bfb7" d="M398 196c.99 8.277.648 16.671.625 25l.098 7.227c0 2.255.002 4.511.004 6.835l.018 6.348C398 246 398 246 392 246c-.445-4.777-.445-4.777-.125-10.937C393.372 226.8 393.372 226.8 388 223h6c.582-6.183.582-6.183.125-13.5-.542-13.5-.542-13.5 3.875-13.5"/><path fill="#090c0c" d="M408 186c.647 4.59.647 4.59.664 10.938l.02 6.835c-.02 2.385-.04 4.77-.059 7.227l.059 7.227-.02 6.835-.017 6.348C408 236 408 236 403 236c-.647-4.59-.647-4.59-.664-10.937l-.02-6.836c.02-2.385.04-4.77.059-7.227l-.059-7.227.02-6.835.017-6.348C403 186 403 186 408 186"/><path fill="#131313" d="M104 0c-5.678 6.625-11.512 12.964-17.562 19.25l-6.13 6.453C75 30 75 30 70 25c3.816-4.863 3.816-4.863 9.563-10.312l5.69-5.489C90 5 90 5 92 5l2-4c1-1 1-1 10-1"/><path fill="#080c0c" d="m352.719 407.336 6.699-.02c2.337.02 4.674.04 7.082.059l7.082-.059 6.7.02 6.22.017C391 408 391 408 391 413c-4.498.647-4.498.647-10.719.664l-6.699.02c-2.337-.02-4.674-.04-7.082-.059l-7.082.059-6.7-.02-6.22-.017c-12.705-1.828.63-6.296 6.22-6.311"/><path fill="#0d0d0d" d="M422 166c.647 4.498.647 4.498.664 10.719l.02 6.699c-.02 2.337-.04 4.674-.059 7.082l.059 7.082-.02 6.7-.017 6.22C422 215 422 215 417 215c-.647-4.498-.647-4.498-.664-10.719l-.02-6.699c.02-2.337.04-4.674.059-7.082l-.059-7.082.02-6.7.017-6.22C417 166 417 166 422 166"/><path fill="#171717" d="M109 474c-3.064 6.129-7.804 10.349-12.562 15.25l-5.817 6.078C85 500 85 500 76 500c5.51-6.428 11.17-12.548 17.063-18.625l5.847-6.102C104 471 104 471 109 474"/><path fill="#080a0a" d="M107 243c.568 4.498.568 4.498.488 10.719l-.049 6.699-.126 7.082-.069 7.082A2343 2343 0 0 1 107 292c-7.532-1.506-5.644-4.427-5.664-11.598l-.02-6.552c.02-2.281.04-4.562.059-6.913l-.059-6.923.02-6.55.017-6.074C102 243 102 243 107 243"/><path fill="#0d0d0d" d="m130.465 63.367 4.17 4.18 4.303 4.328 4.384 4.398Q148.664 81.634 154 87c-7.032 4.688-15.638 7-24 7v-2l-4.305 1.566c-1.838.66-3.676 1.318-5.57 1.996l-5.555 2.004C110 99 110 99 108 98c2.12-4.24 10.03-5.257 14.125-6.625l7.32-2.477C136 87 136 87 143 87l-1 2 8-3-32-32c-2.687 3.745-2.687 3.745-5 12-10.547-21.094 9.59-10.541 17.465-2.633"/><path fill="#dda7c1" d="m398 459-.625 6c-.242 7.358-.242 7.358 8.625 5.75 12.327.385 9.406 5.661 8 16.25-2.28 0-1.015-13.226-1-15l-2 5-2 1-1 3c-16 .496-16 .496-16-1l7.5.063c7.833 1.184 7.833 1.184 7.5-2.063l-7.5 1.063C388.024 477.437 385.608 459 398 459"/><path fill="#faf86d" d="M414 82v2h2a359 359 0 0 1 3 12l2 7c-8.804-2.291-17.387-5.076-26-8l4-1c14-12 14-12 15-12"/><path fill="#f5f36c" d="M8 320c1.406 4.31 2.73 8.648 4 13l3 9v3c-15.81-4.14-15.81-4.14-15-19h2l2-4h2c0-2 0-2 2-2"/><path fill="#0f0c0d" d="M410 481q.125 8 0 16c8 1.083 8 1.083 16 0 0 6.311-11.473 3.995-16.375 3.969-7.815-1.637-5.153-7.099-4.625-13.969-6.5-.583-6.5-.583-13 0 0-11.242 9.472-7.303 18-6"/><path fill="#d696b5" d="M185 310v1l6.5.5c6.5.5 6.5.5 6.5 1.5l-7.5-.937c-8.833-.157-8.833-.157-7.437 8.937-.098 12.484-5.41 8.25-16.063 8-.917 6.5-.917 6.5 0 13-9.274 0-5.107-9.645-5-17l-3-1h16l-1 4c9.233 1.315 9.233 1.315 7-6l-3 2c-.136-14-.136-14 7-14"/><path fill="#6baca5" d="M18 150v5h8c0 8.395-5.738 5.84-13 5.938l-7.312.214C-13.39 157.287 7.937 148.952 18 150"/><path fill="#08090d" d="m261 209-1 6c-3-3-3-3-7-9l-4-2-4.5-3.062c-4.207-3.096-4.207-3.096-8.5-3.938v-2l-3-1v-1c-9.072-.325-9.072-.325-18 2-1-2-1-2 3.25-3.625 17.505-4.186 33.851 1.196 42.75 17.625"/><path fill="#c9c9c9" d="M476 418c1.208 4.498 1.208 4.498.523 10.719l-.464 6.699a870 870 0 0 1-1.485 14.164c-1.125 17.698 2.68 20.01 20.198 18.084L500 467c0 4.318-9.489 2.41-12.437 2.438l-6.997.12c-9.421-.945-6.546-8.024-6.023-15.89l.31-6.104q.336-6.41.797-12.812c1.772-11.797 1.772-11.797-6.662-17.139-6.825.534-6.825.534-4.988 4.387-.43 3.894-.914 7.783-1.422 11.668-5.452 29.583-5.452 29.583 13.583 43.933 8.132-.637 15.855-1.901 23.839-3.601 0 4.518-25.396 5.01-29.484 4.82-14.18-6.361-11.952-18.022-11.766-32.32l.09-8.224c1.382-23.607 1.382-23.607 17.16-20.276"/><path fill="#18170a" d="m409 98.688 8.375 2.824C424 104 424 104 425 106l3 1c0 2 0 2-7 3-4.986-1.422-9.922-3.028-14.812-4.75l-7.895-2.734C392 100 392 100 390 97h3c2.046-6.138 11.527.158 16 1.688"/><path fill="#060505" d="M167 319c0 2.31-11.253 1.017-13 1l5 1v2q6.5.063 13 0c0 1 0 1-6.5.063-7.863.034-7.863.034-6.187 8.937-.507 12.964-7.432 9.662-18.313 8 0-6 0-6 6-5.437 7.261.325 7.261.325 5.875-8.063.188-11.251 4.393-8.89 14.125-7.5"/><path fill="#141414" d="M83 478c0 6.346-4.11 8.828-8.437 13.25l-4.747 4.953C65 500 65 500 56 500c4.748-5.54 9.545-10.836 14.625-16.062l4.477-4.66C79 476 79 476 83 478"/><path fill="#1f2020" d="m483.5 149.25 9.281-.047C500 150 500 150 500 156c-7.219.797-7.219.797-16.5.75l-9.281.047c-19.596-2.163 1.579-7.586 9.281-7.547"/><path fill="#120f10" d="m9 224-.25 8c.356 11.401 3.238 9.059 13.25 8 0 10.177-10.708 6.013-18 5-.875-7.5-.875-7.5 0-15H0c0-6 0-6 9-6"/><path fill="#f0ef6c" d="M317 471c10.2 9.6 10.2 9.6 9 12-6.425 2.356-12.208 4.03-19 5 5.105-19.448 5.105-19.448 10-17"/><path fill="#75cac0" d="M484.5 125.25c2.877-.015 5.754-.03 8.719-.047C500 126 500 126 500 132c-6.781.797-6.781.797-15.5.75l-8.719.047c-18.426-2.165 1.176-7.588 8.719-7.547"/><path fill="#0c0b0b" d="m18.5 164.375 5.348-.059C37 164.367 37 164.367 37 170c-6.277.515-12.224.694-18.5.625l-5.348.059c-23.228-.09-9.15-6.468 5.348-6.309"/><path fill="#101111" d="M15 135.25c2.784-.015 5.569-.03 8.438-.047C30 136 30 136 30 142c-6.562.797-6.562.797-15 .75-2.784.015-5.569.03-8.437.047-17.844-2.167.976-7.588 8.437-7.547"/><path fill="#090909" d="M241 0c-3.121 9.364-14.364 22.318-25 17h-6v-2l-2-1 5.5-.75c7.731-1.487 12.941-3.423 18.125-9.5C235 0 235 0 241 0"/><path fill="#eeec6d" d="M131 72c-1.89 3.78-7.19 3.937-11 5l-7 2c-9.703-19.405 9.247-16.406 18-7"/><path fill="#0d0d0e" d="M0 78c4 3 4 3 4 5h2v2l5 2 5 2c4.328.397 8.662.737 13 1l-1 3 2 2c-14.683 1.727-30 .848-30-17"/><path fill="#e63e35" d="m488 404.125 6.75-.055C500 405 500 405 500 412c-5.25.93-5.25.93-12 .875l-6.75.055c-14.473-2.563-.896-8.867 6.75-8.805"/><path fill="#010100" d="M117 53c7.343 6.294 14.129 13.02 20.938 19.875l3.806 3.82Q146.375 81.345 151 86c-3 2-3 2-11 4 0-3.745 1.124-5 5-5-5.212-6.07-10.637-11.862-16.25-17.562l-4.766-4.88c-3.532-4.19-3.532-4.19-6.984-2.558a2130 2130 0 0 0-6 17h-2c1.716-8.807 4.25-15.825 8-24"/><path fill="#d99cb9" d="M29 250c.125 5.332.125 10.668 0 16 6 .833 6 .833 12 0 0 11.242-9.472 7.303-18 6-2.375-16-2.375-16 1-16q.562 4.994 1 10c5.136-2.568 2.611-10.518 2-15-6.538-.497-6.538-.497-13 1 0-6.034 11.817-2.477 15-2"/><path fill="#330e0c" d="M21 418c.308 4.074.393 8.165.398 12.25l.012 7.656-.035 8.094.035 8.094-.012 7.656-.01 7.11C21 474 21 474 18 474c-.308-4.074-.393-8.165-.398-12.25l-.012-7.656.035-8.094-.035-8.094.012-7.656.01-7.11C18 418 18 418 21 418"/><path fill="#240604" d="M266 361c6.274 2.091 3.668 16.2 3.75 22.375l.129 6.066C270.372 417 270.372 417 266 417c-.27-4.076-.32-8.166-.293-12.25l.03-7.656.075-8.094.042-8.094q.054-9.952.146-19.906"/><path fill="#252123" d="M184 304c0 2.31-11.253 1.017-13 1l2 4 1-1c16-.248 16-.248 16 1l-7.5-.875c-8.762-.237-8.762-.237-7.437 8.438C175 324 175 324 167 324.563 159 323 159 323 159 321c-7.175 0-4.18 6.243-4 12-2.163 0-1-11.343-1-13l-1-2 8.5.875c18.049-1.858-.612-17.97 22.5-14.875"/><path fill="#1c62ac" d="M8 22c9.75 3.25 9.75 3.25 11 7a449 449 0 0 1-10 3c-3.04 1.594-6.053 3.241-9 5-1-15-1-15 8-15"/><path fill="#161616" d="m318 202-.687 7.063c.997 10.064 3.965 8.027 12.687 5.937 0-2.749-5.272-1.66-8-2 0-4.805 13.28-1.287 15-1 2.625 19 2.625 19-6 19l.5-6.437c.507-7.67.507-7.67-7.5-6.938-9.578-.855-9.974-15.625-6-15.625"/><path fill="#100201" d="M327 61c.103 3.393.13 6.789.133 10.184l.004 6.439-.012 6.814.012 6.71-.004 6.474-.004 5.951C326.785 118 326.785 118 325 118c-1.428-11.156-1.184-22.336-1.187-33.562l-.038-6.487C323.76 61 323.76 61 327 61"/><path fill="#efefed" d="M316 283c-1.389 6.945-1.389 6.945-7.562 7.5-5.77-.38-5.77-.38-5.438 2.5-11.022 3.391-11.022 3.391-17 1 0-4.274 10.172-5.596 13.313-6.625l7.488-2.477C313 283 313 283 316 283"/><path fill="#0b0b0b" d="M14 300c3.273 9.455 3.273 9.455 2 12h-3l-1 2-1-2c-4.808 2.202-4.808 2.202-11 8 0-7.217 4.593-20 14-20"/><path fill="#eae3e2" d="M18 467c0 13.036-7.15 9.206-18 8 0-13.036 7.15-9.206 18-8"/><path fill="#72ccc4" d="m355.5 384.602 6.563-.012 6.937.035 6.938-.035 6.562.012 6.094.01C393 385 393 385 393 388c-4.406.388-4.406.388-10.5.398l-6.562.012-6.938-.035-6.937.035-6.563-.012-6.094-.01c-12.265-1.08 2.2-3.78 6.094-3.786"/><path fill="#111212" d="m373.281 422.602 6.426-.012 6.793.035 6.793-.035 6.426.012 5.967.01C410 423 410 423 410 426c-4.314.388-4.314.388-10.281.398l-6.426.012-6.793-.035-6.793.035-6.426-.012-5.967-.01c-12.011-1.08 2.097-3.78 5.967-3.786"/><path fill="#faf86f" d="M500 321q.063 9.5 0 19c-14.065-3.806-14.065-3.806-13-7l5-4c7.059-8 7.059-8 8-8"/><path fill="#ce96b1" d="m191 290-.062 8.938c-1.286 8.76-1.286 8.76 2.062 10.062-6.368 0-8.368-19-2-19m21 2c0 10.37-7.545 6.459-16 6l-1-1-.437 5.5C194 308 194 308 193 308c-2.728-17.462 2.433-18.398 19-16"/><path fill="#0c0e0e" d="M92 264c.388 4.314.388 4.314.398 10.281l.012 6.426-.035 6.793.035 6.793-.012 6.426-.01 5.967C92 311 92 311 89 311c-.388-4.314-.388-4.314-.398-10.281l-.012-6.426.035-6.793-.035-6.793.012-6.426.01-5.967C89 264 89 264 92 264"/><path fill="#ebebeb" d="M418 69c3.882 11.647 3.882 11.647-2 14l-1-2c-10.415 0-13.547 5.256-20 13h-2c3.012-6.024 7.746-10.01 12.5-14.75l5.781-5.797C416 69 416 69 418 69"/><path fill="#111" d="m478 197-.562 5.438c-.25 6.675-.25 6.675 7.562 5.937 10.31.92 8.329 4.503 7 13.625-1 0-1 0-.687-6 .636-6.999.636-6.999-6.313-6-.298 2.224-.298 2.224 2 3-13.71 1.958-13.71 1.958-15.187-8 1.187-8 1.187-8 6.187-8"/><path fill="#f3f177" d="M128 52c11 9.429 11 9.429 11 12l4 2c0 3 0 3-6 5-4.305-3.523-4.305-3.523-8.875-8.375l-4.617-4.836L120 54c2-1 2-1 9 4l2-1-3-3z"/><path fill="#7bcbc2" d="M96 312c.209 4.789.315 9.582.375 14.375l.148 8.086C96 341 96 341 91 343c-.107-4.979-.185-9.958-.25-14.937l-.14-8.403c.449-7.66.449-7.66 5.39-7.66"/><path fill="#000515" d="m183 474-.062 7.438c.052 7.19.582 11.948 3.062 18.562-11.814 0-9.552-8.056-9-18 4-9 4-9 6-8"/><path fill="#070707" d="M334 0c-4.171 2.78-8.564 4.026-13.312 5.625l-5.614 1.914C304.525 10.576 304.525 10.576 303 6c4.454-8.908 23.116-6.239 31-6"/><path fill="#da9cb9" d="M206 94c2 4 2 4-5 11-8.06-8.06-8.698-22.741 5-11"/><path fill="#232022" d="M306 181c2.5 15 2.5 15-1 15a676 676 0 0 1 0-13l-5 1 2 2-.687 7.125c1.02 10.202 4.644 8.005 13.687 6.875 0 4.097-12.336 1.22-14 1q-.562-6.995-1-14c-6.542-.667-6.542-.667-13 0 0-11.472 10.397-7.189 19-6"/><path fill="#262525" d="M274 293v2a953 953 0 0 0 15.375 15.688l4.43 4.478c5.831 7.84 5.831 7.84 13.195 9.834v6c-8.24-7.062-15.867-14.605-23.562-22.25l-4.58-4.492C275.641 301.06 261.152 286.577 274 293"/><path fill="#0c110f" d="M490 135.25c1.856-.015 3.712-.03 5.625-.047C500 136 500 136 500 142c-4.375.797-4.375.797-10 .75-1.856.015-3.712.03-5.625.047-12.08-2.2-.865-7.601 5.625-7.547"/><path fill="#76cac0" d="M10 125.25c1.856-.015 3.713-.03 5.625-.047C20 126 20 126 20 132c-4.375.797-4.375.797-10 .75-1.856.015-3.713.03-5.625.047-12.08-2.2-.865-7.601 5.625-7.547"/><path fill="#f8f7ed" d="M417 83c2 6 2 6 2 13-3-6-3-6-3-12h-2v-2l-3.562 3.125C399.082 95.041 399.082 95.041 395 93c16.432-18.352 16.432-18.352 22-10"/><path fill="#2a2a2a" d="M420.316-.887C428.268.62 426.576 5.144 425 12l-2 4 6.5-.062C436 16 436 16 436 17c-15.657 1.835-16 .845-16-14-8-.917-8-.917-16 0 0-6.292 11.422-3.93 16.316-3.887"/><path fill="#809d9a" d="m379 392.375 7.516-.098c2.346 0 4.692-.002 7.109-.004l6.602-.018C405 393 405 393 405 399c-1 0-1 0-1-5-4.865-.793-4.865-.793-10.937-.664l-6.836-.02c-2.385.02-4.77.04-7.227.059l-7.227-.059-6.836.02-6.347.017c-5.415-.01-5.415-.01-4.59 5.647-5.17.358-10.346.693-15.527.762-4.511-.41-4.511-.41-5.473 2.238-2 0-2 0-2-5 4.813-.348 4.813-.348 11-.062 12.472.559 20.739-4.605 37-4.563"/><path fill="#1d1f20" d="m99 1-5.285 5.11-6.778 6.64-6.785 6.61C74.228 24.271 74.228 24.271 76 29c-3 0-3 0-6-4 4.012-4.766 4.012-4.766 9.688-10.25l5.636-5.516C90 5 90 5 92 5l2-4c1-1 1-1 5 0"/><path fill="#131313" d="M64 0C51.7 14.35 51.7 14.35 47 12 47 1.662 55.412 0 64 0"/><path fill="#d199b4" d="M429 0v3l6.5-.187C442 3 442 3 442 9a300 300 0 0 1-15 0l-1 3c-.375-12-.375-12 3-12"/><path fill="#fececb" d="M476 418a616 616 0 0 1-.746 10.719q-.348 6.89-.692 13.781c-.205 2.337-.41 4.674-.623 7.082-.77 20.797 7.54 19.79 26.061 17.418 0 4.318-9.489 2.41-12.437 2.438l-6.997.12c-9.322-.935-6.65-8.181-6.48-16.109l.133-6.24.156-6.522.133-6.58C474.872 418 474.872 418 476 418"/><path fill="#18160a" d="m138 70.75 4.121 4.059c9.997 9.956 9.997 9.956 8.879 12.191l-33-33c-2.687 3.745-2.687 3.745-5 12-13.58-27.159 18.326-1.898 25 4.75"/><path fill="#75cdc3" d="M411 178c.372 4.299.372 4.299.363 10.246l-.002 6.412-.048 6.78.01 6.767c-.057 16.662-.057 16.662-2.323 17.795-.253-8-.474-16-.687-24l-.221-6.937-.166-6.563-.175-6.094C408 178 408 178 411 178"/><path fill="#74bcb4" d="m483.5 155.688 9.281-.114C500 156 500 156 500 160c-5.031.496-5.031.496-11.5.438l-6.469-.004C477 160 477 160 477 157h-10c0-2.25 15.676-1.306 16.5-1.312"/><path fill="#e6a9c7" d="M500 230c1.125 5.5 1.125 5.5 0 11-9 0-9 0-10.125-5.5C491 230 491 230 500 230"/><path fill="#7bc9bf" d="M126 465c4.602 7.67-.016 8.654-6 14v-7l-6 7c-5 5-5 5-10 7 18-21 18-21 22-21"/><path fill="#2561a4" d="M224 189c0 4.055-6.765 4.104-10 5l-3 1c0-2 0-2 2-2 .33-2.975.33-2.975-5.5-1.187-5.989.355-5.989.355-5.5 4.187-8.305 7-8.305 7-11 7 6.77-13.538 19.244-14.568 33-14"/><path fill="#131313" d="m422 62-2 4-2-4a3651 3651 0 0 0-16.187 15.813l-4.702 4.548C387.657 88.903 387.657 88.903 389 97c-4 1-4 1-7-2 5.422-6.85 11.92-12.798 18.125-18.937l5.313-5.409 5.07-5.056 4.707-4.703C419 58 419 58 422 62"/><path fill="#161616" d="M79 249c.402 6.781.402 6.781-.062 15.5l-.41 8.719C78 280 78 280 77 280c-.033-7.293.07-14.582.16-21.875.852-6.458.852-6.458-2.16-6.125-.168 3.423-.19 6.854-.16 10.281l.033 6.426.064 6.793q.052 6.609.09 13.219l.055 5.967C75 299 75 299 74 299c-.545-8.323-.705-16.663-.937-25l-.284-7.227-.181-6.836-.203-6.347C73 249 73 249 79 249"/><path fill="#0d0f0e" d="m484.5 151.625 8.719-.023C500 152 500 152 500 155c-5.16.303-10.332.389-15.5.375l-8.719.023c-18.469-1.085 4.008-3.786 8.719-3.773"/><path fill="#060304" d="M209 100c0 3 0 3-3 7 .788 4.823.788 4.823 7 9 0 3 0 3-3 5-12.329-11.342-12.329-11.342-11-14h3z"/><path fill="#060607" d="M499 313c1.712 6.85-4.07 9.727-8.75 14.375l-5.547 5.586C480 337 480 337 477 335z"/><path fill="#010101" d="M190 290c.75 17 .75 17-1 17l.125-8c1.2-8.5 1.2-8.5-3.125-8l2 1c.743 14 .743 14-4 14v-2c-11.473-2.457-11.473-2.457-14.812 7l.812 7c-4.405 0-1.244-13.278-1-15a512 512 0 0 1 16 0c1.375-13 1.375-13 5-13"/><path fill="#252525" d="M215 55h-3c-8.68 3.99-8.68 3.99-8 12l5 6c-5.31 0-7.69-4.249-11-8 1.761-7.045 10.743-19.386 17-10"/><path fill="#070a0a" d="M17 151c0 9.567-9.716 5.536-17 5 0-9.567 9.716-5.536 17-5"/><path fill="#205791" d="M500 48c.074 4.666.083 9.333.063 14l-.028 7.875L500 76c-3.055-4.073-8.98-28 0-28"/><path fill="#e6b9d0" d="M178 309c.457 4.656.791 9.326 1 14l3-2c0 7 0 7-8 7v-2l-2-1h3v-8c0-8 0-8 3-8"/><path fill="#020202" d="m14 136.625 7.875-.023C28 137 28 137 28 140c-4.658.303-9.332.389-14 .375l-7.875.023c-16.653-1.083 3.311-3.787 7.875-3.773"/><path fill="#0a0a0b" d="M418 68c-26 26-26 26-28 26 3.198-6.396 8.42-10.764 13.438-15.812l6.308-6.395C415 67 415 67 418 68"/><path fill="#d8e3ec" d="M218 458c2 2 2 2 1 6l1 4-5.062-2.875c-5.936-3.383-5.936-3.383-12.938-5.125 2.236-4.472 11.758-2.14 16-2"/><path fill="#040404" d="M58 58c0 17 0 17-4 17l-2 4c-2 0-2 0-1.312-6.5C52 66 52 66 55 66v-6c2-2 2-2 3-2M40 88l1 2-2-1z"/><path fill="#fcf76a" d="M112 37c8.6 4.3 15.719 12.437 20 21-6.051 1.513-7.842-1.842-12-6l2-4c-5.807-6.85-5.807-6.85-10-8z"/><path fill="#080708" d="M20 468v6h2c0 6.862-5.164 4.493-11 4.438l-6.187-.004C0 478 0 478 0 475l8.938-.312C17.665 474.025 18.544 468 20 468"/><path fill="#1c1c1c" d="M84 0c-8.647 10.088-8.647 10.088-13 9-2.387-9.547 5.815-9 13-9"/><path fill="#323211" d="M312 467c7.602 1.52 11.035 6.507 16.438 11.938l6.12 6.09C339 490 339 490 337 492c-3.75-3.452-7.375-7.042-10.937-10.687l-6.028-6.137L315 470z"/><path fill="#a88496" d="m4 230-1.062 7.5c1.719 12.137 8.488 8.528 19.062 7.5 0 3.018-5.982 1-9 1v4c-2 0-2 0-2-2l-2-1c0 11.582 2.981 8.674 13 8 0 3.606-13.267 1.159-15 1v-10H3c-.625-16-.625-16 1-16"/><path fill="#101010" d="M109 492c0 8.96-5.171 8-13 8 8.7-10.15 8.7-10.15 13-8"/><path fill="#010101" d="M245 251c0 2 0 2-5 4v2c-7.28 1.82-14.235 3.353-19-3 2-2 2-2 9.313-1.5 6.46.42 9.008-1.5 14.687-1.5"/><path fill="#181717" d="m426 0-.937 6c1.577 10.096 8.245 6.815 16.937 6-4.109 6.163-12.317 4.869-19 4-.473-2.9-2.45-16 3-16"/><path fill="#262626" d="M280 296a255 255 0 0 1 15.313 14.25l4.238 4.266L303 318l2 2c-5.932 1.977-10.934-6.462-14.75-10.312l-6.422-6.426C279 298 279 298 280 296"/><path fill="#0a0a0e" d="M213 249c9.75 2.75 9.75 2.75 12 5l-2 1 6 .438c6 .562 6 .562 6 1.562-21.03 2.908-21.03 2.908-24-6h2z"/><path fill="#020101" d="M408 483c1.889 12.111 1.889 12.111-3 17l.125-6.437c-1.486-8.67-2.986-7.769-11.125-7.563 0-7.035 9.487-3.685 14-3"/><path fill="#080808" d="m259 217 1 10h1l-.5 4.875c-.92 4.728-.92 4.728.5 7.125l-3 5-2-3h-2c1-5 1-5 3-10 1.077-14 1.077-14 2-14"/><path fill="#eae7e0" d="M500 321c0 7 0 7-4 8v2h-2l-1 3h-2v2h-5c1-3 1-3 6-7 7.059-8 7.059-8 8-8"/><path fill="#00030b" d="M435 298c4 2 4 2 4 4h2c2.955 20 2.955 20-3 20a410 410 0 0 1-1-10.312c-.456-6.953-.456-6.953-2-13.688"/><path fill="#040001" d="m9 224-.25 8c.352 11.273 3.272 9.535 13.25 8-2.197 6.59-10.584 3.683-16 3-2-12-2-12 1-12 2.233-7.315 2.233-7.315-7-6 0-3.018 5.982-1 9-1"/><path fill="#020101" d="M478 196c-2 2-2 2-5 1-2.51 12.08-2.51 12.08 6 16.625 6.322-.676 6.322-.676 6-3.625 9.62 0 6.545 4.898 6 13-2.749 0-1.66-5.272-2-8l-8.562.125C468.528 213.537 465.01 196 478 196"/><path fill="#1d1d0e" d="M14 348a404 404 0 0 1 12 4c3.118.354 3.118.354 5-2l2 7c-36-9-36-9-19-9"/><path fill="#090807" d="M123 63c5.462 2.731 8.943 6.68 13.25 11l4.953 4.938C145 83 145 83 145 85c-5.462-2.731-8.943-6.68-13.25-11l-4.953-4.937C123 65 123 65 123 63"/><path fill="#010207" d="M495 52c.374 19.813.374 19.813-2 21v-5h-2c-.964-16-.964-16 4-16"/><path fill="#f4f16a" d="M308 464c-1 7-1 7-3 13-2-1-2-1-2-3h-2c0-3.438.989-16.011 7-10"/><path fill="#212121" d="m29 90-1 3 2 2c-15.4 1.4-15.4 1.4-17-5 4.498-2.249 11.124-.399 16 0"/><path fill="#190d11" d="M135 387c4.011 6.016-4.701 10.163-9 14l-3-2 3.813-3.25c4.246-3.556 4.246-3.556 7.187-7.75l-7 6-4-1 4-2c4-5 4-5 8-4"/><path fill="#6fcec4" d="M397 224c.155 3.498.222 7 .25 10.5l.078 5.906C397 245 397 245 394 245c-.7-21-.7-21 3-21"/><path fill="#0c0c0c" d="M500 165c0 8.365-5.128 5.716-12 5 0-8.365 5.128-5.716 12-5"/><path fill="#e7ecef" d="M235 0c-9 13.5-9 13.5-14 11l5-7c2-4 2-4 9-4"/><path fill="#0e0e0e" d="m134 90-2 2 1 2c-3 0-3 0-3-2l-4.305 1.566c-1.838.66-3.676 1.318-5.57 1.996l-5.555 2.004C110 99 110 99 108 98c3.062-6.125 19.378-8 26-8"/><path fill="#1f1f1f" d="M380 308c.62 15 .62 15-2 15l-1 3c-6-21-6-21 3-18"/><path fill="#20201f" d="M422 65c2.817 4.225 7.042 11.958 3 16-2-5-2-5-2-8h-2l1 4-2 1c-1-9-1-9 2-13"/><path fill="#101215" d="M214 453c0 1 0 1-5.937 1.938-5.971.209-5.971.209-7.063 3.062l2 1c-7 1-7 1-8-4 8.068-2.69 11.073-3.34 19-2"/><path fill="#191919" d="M25 335c2.817 4.225 7.042 11.958 3 16l-1-6c-2.224-.298-2.224-.298-3 2-4.875-8.125-4.875-8.125-2-11l2 5v-4z"/><path fill="#020203" d="M500 137c0 6.824-13.277 3.197-18 3 0-6.824 13.277-3.197 18-3"/><path fill="#d399b5" d="M121 384c7 6 7 6 4 9-4.148-2.074-15.083-11.77-4-9"/><path fill="#326bad" d="M245 209c5.73 2.865 3.275 13.9 2 19h-2l-1 2z"/><path fill="#faf9d4" d="M424 113c2 0 2 0 3 5h2c2.327 9.673 2.327 9.673 1 11-12 0-12 0-12-4l-2-1c9.75 1.875 9.75 1.875 12 3-1.821-7.719-1.821-7.719-4-14"/><path fill="#1d181b" d="m490 214-.562 7c-.475 8.661-.475 8.661 10.562 7 0 2 0 2-6 3.063-9.8-1.736-6.925-7.45-6-16.063 1-1 1-1 2-1"/><path fill="#090802" d="M319 286c1.119 6.713 1.778 13.055-6 15 .75-11 .75-11 3-11 1-4 1-4 3-4"/><path fill="#1a1a1a" d="m289 289 5-1c1 2 1 2-5.312 4.25C282 294 282 294 280 292l5-1c-.882-2.59-.882-2.59-4-1l-2-2c7.636-2.545 7.636-2.545 10 1M56 53c4.518 2.259 1.596 9.946 1 14-7.95-1.59-5.376-5.865-5-13l1 4c2.784.327 2.784.327 3-5"/><path fill="#020202" d="M27 345c2 4 2 4 3 7-5.783 1.446-9.444 1.224-11-5h3c1-3 1-3 5-2"/><path fill="#faf8c6" d="M416 81c3 8 3 8 3 15-3-6-3-6-3-12h-2v-2l-3.75 3.313A149 149 0 0 1 402 92c2.948-5.896 6.935-12.766 14-11"/><path fill="#f9f7a0" d="M111 40c2.673 5.346-1.132 12.018-3 17l-1 5-3 1c1-9 1-9 4-10l1-9z"/><path fill="#1b1b1b" d="M243 479c.375 14 .375 14-2 14l-3 7c-3-1-3-1 0-9h1l.438-4.875C240.22 479 240.22 479 243 479"/><path fill="#060505" d="M207 65c11.367 9.743 10.844 10.304 0 20h-2c2-4 2-4 9-11l-7-7z"/><path fill="#2c62a1" d="M493 23c0 2 0 2-4 4l-3 3-5 2a188 188 0 0 0-6 9l-2 2c1.64-8.203 10.376-20 20-20"/><path fill="#daa5be" d="M194 295c8.144 4.886 6.457 10.33 5 19-16 2.125-16 2.125-16-1l7.563.75c10.835-1.093 8.518-4.34 6.437-13.75l-3 1z"/><path fill="#1f5996" d="M205 211c1 7 1 7-1 9-.422 7.089-.231 10.537 3 17l-1 3c-1.534-3.069-9.81-29-1-29"/><path fill="#e6e565" d="M120 53c5 2 5 2 9 5h4v8c-7-6-7-6-13-13"/><path fill="#2a61a5" d="M183 463c0 7.682-3.122 9.854-10 11l-1 3c-3.039-6.077 7.24-11.314 11-14"/><path fill="#1f5996" d="M414 286c0 1 0 1-4.437 1.188-7.583 1.107-12.21 4.46-17.563 9.812v-3l-2-1c9.014-5.502 13.413-7.25 24-7"/><path fill="#191814" d="m319 284 2-1c1 3 1 3-1 6l-1-3c-2.959-.329-2.959-.329-3 6-2-4-2-4 0-9l-7 2-2-2c4.968-1.987 7.925-3.075 12 1"/><path fill="#f9f68e" d="M479 347v3a455 455 0 0 0 10 3v2h5l2 3c-6.915-1.383-13.454-3.381-20-6 2-4 2-4 3-5"/><path fill="#faf8c8" d="M336 283c.534 7.584-1.844 11.899-5 19-1.64-6.563 1.664-11.846 4-18l-7 2h-5l4-1c0-2 0-2 9-2"/><path fill="#f8f68a" d="M393 113v2q4.985 1.072 10 2l1 1 7 1v2l3 1c-6.658-1.11-12.854-2.539-19.125-5.062-4.955-2.169-4.955-2.169-10.875-2.938 0-3.018 5.982-1 9-1"/><path fill="#1b1b07" d="m400 96 10 3-2 3 2 2c-4 1-4 1-10-1l3-3-3-2z"/><path fill="#f2f195" d="M103 64c1 2 1 2 0 10h-2c-2.296 7.825-2.296 7.825 4 7l-1 3v-2l-6 2c2.5-17.5 2.5-17.5 5-20"/><path fill="#8accc5" d="M121 468c0 7.565-10.641 15.456-17 18 5.42-6.324 11.08-12.151 17-18"/><path fill="#cc95ae" d="M105 391c-4.452 4.452-6.923-.154-10-4 5.069-3.379 6.746-.339 10 4"/><path fill="#205894" d="M438 295c3 1 3 1 3 4h2c4.47 22.353 4.47 22.353-1 26l.25-8.812c.024-7.896-.883-13.929-4.25-21.188"/><path fill="#d7a9bf" d="m497 230-1 4v-3c-4.333-.5-4.333-.5-3 8h7c0 2 0 2-9 2-1.875-11-1.875-11 6-11"/><path fill="#ae95a1" d="M10 224v10h3v5h9c0 4.325-11.305 1.277-13 1-1.75-16-1.75-16 1-16"/><path fill="#daecf8" d="M246 230c1.83 7.32-4.467 11.73-9 17h-5l9-9z"/><path fill="#215794" d="M224 189c0 4.055-6.765 4.104-10 5l-3 1c0-2 0-2 2-2 .333-2.5.333-2.5-3-2 0-4.693 10.784-2.115 14-2"/><path fill="#090a0a" d="m423 73 2 6h2c0 3 0 3-3 3l2 7c-2 1-2 1-5-8 0-8 0-8 2-8"/><path fill="#020203" d="M395 286c0 5.629-7.542 9.217-12 11 2-4 2-4 7-9 1-3 1-3 5-2"/><path fill="#020f28" d="M417 280c13.423 5.845 13.423 5.845 15 9-4-1-4-1-12-5-5.466-2.187-10.168-2.508-16-3 0-3.076 12.003-1.068 13-1"/><path fill="#000004" d="M233 192c0 3 0 3-8 3a263 263 0 0 0-10 2c4.201-6.302 11.128-5 18-5"/><path fill="#3b6aa3" d="M206 21c-5.556 1.852-12.061 2.292-17-1 3.774-1.887 14.92-3.158 17 1"/><path fill="#f9f7c8" d="M329 483c-1.859 3.718-7.203 3.26-11 4l-3 2h-8c1-2 1-2 10-4 9-3 9-3 12-2"/><path fill="#cf9db4" d="M116 394c-7 7-7 7-12 6 8-8 8-8 12-6"/><path fill="#205ca3" d="M433 330c-2.992 5.983-14.535 3.131-20 3 0-4.409 11.728-2.814 15-3 3-1 3-1 5 0"/><path fill="#e4e3e3" d="M316 283c-1 5-1 5-8 6l-4-3c9-3 9-3 12-3"/><path fill="#1764b3" d="M500 54q.063 9 0 18c-3.949-5.924-3-7.764-3-16h2c0-2 0-2 1-2"/><path fill="#dedede" d="M316 0c-4.218 2.812-8.79 5-14 5 1.636-8.18 6.724-5.353 14-5"/><path fill="#0a0b0b" d="M476 414c-1.75 6.997-7.795 4.241-14 4 1.822-5.465 8.855-4 14-4"/><path fill="#1b1b1b" d="M307 282c0 4 0 4-7 6l-2-2 5-1-6-2c5.143-3.429 5.143-3.429 10-1"/><path fill="#3468a3" d="M171 478c1 5 1 5-2 6a262 262 0 0 0 0 14c-3.174-3.174-4.104-20 2-20"/><path fill="#d7a1ba" d="M212 292c0 9.338-4.05 6.58-12 6 0-3.018 5.982-1 9-1l1-4-7.5.063c-20.334-.17 5.95-1.246 9.5-1.063"/><path fill="#121212" d="M338 496c-9 4-9 4-18 4 4.71-4.71 12.116-6.942 18-4"/><path fill="#e297bc" d="M412 473c-1.741 6.964-5.126 3.719-12 2 0-4.4 8.832-2.066 12-2"/><path fill="#faf8d4" d="m8 320 1 3 5 2c-.187 5.625-.187 5.625-1 11-3.423-5.135-5-9.875-5-16"/><path fill="#d1d9e3" d="M240 198c5 2 5 2 10 7l-4 1-1 2c-5-8-5-8-5-10"/><path fill="#fbeaf3" d="m441 0 1 3c-14.685.424-16.793-3.977-1-3"/><path fill="#e0eaf3" d="m406 276-6 4-5 4h-2c1-3 1-3 3-3l1-4c5-2 5-2 9-1"/><path fill="#255893" d="M196 232c7 10.5 7 10.5 7 15-5-2-5-2-8-6h2z"/><path fill="#dededd" d="M426 96c2 3 2 3 3 10-7-2-7-2-6-7h3z"/><path fill="#151515" d="M295 4c3 2 3 2 1 7l5-1c0 2 0 2-9 5zm3 0 2 1Z"/><path fill="#fae9f3" d="M423 493c0 6.077-7.529 3.28-12 3 0-6.077 7.529-3.28 12-3"/><path fill="#1b1911" d="M302 483c2.74 5.48 1.497 14.834-5 17 1.537-5.728 3.124-11.372 5-17"/><path fill="#edf9fb" d="m96 454-11 11c-2-3-2-3 0-5h3l2-5c2-2 2-2 6-1"/><path fill="#080909" d="M310 313c2 3 2 3-1 11l-1-2-5-1 2-1 1-4 2 2z"/><path fill="#d19bb4" d="m206 100-6 5c-2.145-7.507-.445-11.445 6-5"/><path fill="#1d548d" d="M491 52c.044 5.333.04 10.667 0 16l1 8c-4.348-4.348-3.365-7.651-3.312-13.687l.011-5.825C489 52 489 52 491 52"/><path fill="#1c538f" d="M27 34c0 4.572-13.513 3.641-17 4 6.655-4.991 7.498-4 17-4"/><path fill="#0a1320" d="M231 9c-8.934 6.382-11.903 6-23 6 0-1 0-1 5.5-1.812 6.014-1.1 11.923-6.047 17.5-4.188"/><path fill="#0c211f" d="M107 491c-5.609 9.348-5.609 9.348-11 8 8.75-9.125 8.75-9.125 11-8"/><path fill="#151515" d="M70 385c1 3 1 3 1 6l4.563 4.563C80 400 80 400 79 402c-13.41-12.59-13.41-12.59-9-17"/><path fill="#1b1b1b" d="m400 341 1 2 3 1c-5 3-5 3-11 1l-1-3 6 1z"/><path fill="#28270c" d="M313 291c4.32 4.32-.205 11.214-2 16-3.03-6.059-.256-9.896 2-16"/><path fill="#141314" d="M391 286c-2.733 5.466-6.691 9.691-11 14 .98-4.898 4.998-14 11-14"/><path fill="#282829" d="M246 250c-8.333 4.166-11.14 4.309-20 3 0-1 0-1 5.625-1.375 4.912-.482 11.146-4.854 14.375-1.625"/><path fill="#030304" d="M27 29c9 1 9 1 10 5-6 1-6 1-11 0l2-3z"/><path fill="#ae7c95" d="M412 476a348 348 0 0 1-.375 10.5l-.273 5.906C411 497 411 497 410 497l.063-8c1.268-8.333 1.268-8.333-2.063-8 1.25-5 1.25-5 4-5"/><path fill="#d9d8d9" d="M20 339c2 3 2 3 3 9-7-2-7-2-6-7h3z"/><path fill="#070501" d="M498 339c2 1 2 1 1 5-12.287-3.293-16.383-6.88-1-5"/><path fill="#e0ded4" d="M500 321c0 7 0 7-4 8l-1 2v-3l-2-1c6-6 6-6 7-6"/><path fill="#1e171a" d="M198 85c5.053 2.527 8.224 5.834 12 10-4.264 4.264-9.046-4.818-12-8z"/><path fill="#e2e1e1" d="M406 79c0 4.844-7.947 15-13 15 3.074-6.148 8.12-10.233 13-15"/><path fill="#373737" d="m199 61 4 5 6 7c-5.31 0-7.69-4.249-11-8z"/><path fill="#f7f694" d="M112 37c6.527 3.264 10.938 8.828 16 14-5.658 0-9.235-6.188-13-10l-3-1z"/><path fill="#f7f693" d="M297 480c0 5 0 5-2 11l4 1c-4 2-4 2-7 2 1.667-10 1.667-10 4-10 0-4 0-4 1-4"/><path fill="#081e1c" d="M81 476c-6 12-6 12-12 10 9.75-10 9.75-10 12-10"/><path fill="#0f0b0c" d="M112 391c4.965.993 11 2.602 11 9h2v2c-5.34-2.67-8.804-6.804-13-11"/><path fill="#dddd7c" d="m496 332-1 4 5 1v3l-11-3 2-1v-2c3-3 3-3 5-2"/><path fill="#eceb7d" d="M308 303c1 4 1 4-2 13l-1-2-4-2-1-2h6z"/><path fill="#1a1a1a" d="M52 73c-2.226 6.677-4.77 9.424-10 14-2-2-2-2 3-6 5.75-8.625 5.75-8.625 7-8"/><path fill="#fcf869" d="M105 73c0 8 0 8-5 8 1.143-8 1.143-8 5-8"/><path fill="#070707" d="M92 385h-2l-2 4-7 6c0-4.464 6.76-14.24 11-10"/><path fill="#b5c8de" d="m431 333-7 6c-1-3-1-3 0-4l-8-1c0-2.72 12.792-2.104 15-1"/><path fill="#f6f4df" d="m6 319 2 1H6v2c-4 4-4 4-6 4 0-2.022 2.196-14.608 6-7"/><path fill="#141414" d="m317 3-5.562 1.875c-6.22 1.39-6.22 1.39-4.438 4.125-3 0-3 0-4-3 3.009-6.018 9.013-5.493 14-3"/><path fill="#121213" d="M241 0c-2 6-2 6-4 6V3l-4 3c1.2-6 1.2-6 8-6"/><path fill="#323131" d="M328 481c4 2 4 2 11 9-4.139 4.139-8.096-3.847-11-7z"/><path fill="#181818" d="M16 310c2 1 2 1 3 6l-2 2-1-2-3 2c-1-4-1-4 0-6h3z"/><path fill="#e4bfd2" d="M3 230c0 10 0 10-3 10 0-10 0-10 3-10"/><path fill="#010c25" d="m211 197-3.312 3.688c-3.833 4.24-3.833 4.24-6.688 9.312h-2c1.575-3.939 6.805-15.598 12-13"/><path fill="#1a1a1a" d="M249 198c6.882 1.72 8.96 5.92 12 12l-2 2-2.187-4.187c-2.75-5.174-2.75-5.174-7.813-9.813"/><path fill="#0a0905" d="M428 107c0 2 0 2-7 3-3.524-8.809 1.453-5.774 7-3"/><path fill="#0a0a03" d="M417 105c-8 1-8 1-10-4 4.266-2.133 6.558 1.246 10 4"/><path fill="#f1f0d1" d="M126 75c0 5.286-10.774 5.943-15 7 2.84-5.68 8.798-7 15-7"/><path fill="#000208" d="m181 488 2 9 1 3c-6.964 0-5-4.818-5-11 1-1 1-1 2-1"/><path fill="#070707" d="M234 253c0 4.383-7.8 2.858-11 3-6.222-6.222 8.335-3.372 11-3"/><path fill="#c2d5ed" d="M186 214q1.03 7.995 2 16l1 4c-8.275 0-3.383-20-3-20"/><path fill="#191919" d="m422 62-2 4-2-4-7 6c6.2-12.4 6.2-12.4 11-6"/><path fill="#000108" d="m21 32-7 1v3H9c1.683-5.049 7.59-8.41 12-4"/><path fill="#080809" d="M244 492c-2 8-2 8-6 8 2.286-8 2.286-8 6-8"/><path fill="#faf8be" d="M0 360c8 1 8 1 16 4-6.315 1.579-11.359.641-16-4"/><path fill="#e4e386" d="m322 283 1 3 7-1c0 2 0 2-5 2v2h-3v3h-2z"/><path fill="#f8d5d2" d="M73 196c10 0 10 0 10 3-9 0-9 0-10-3"/><path fill="#75c1b6" d="M7 142c0 4 0 4-7 4 0-4 0-4 7-4"/><path fill="#f3f2c7" d="M137 60c6.194 1.549 7 3.785 7 10h-3l-1 3c-2-1-2-1-2-3l5-1c-1.895-4.316-1.895-4.316-6-8z"/><path fill="#262324" d="M208 88c7 6 7 6 9 9-5.29 1.763-6.98-3.108-10-7z"/><path fill="#2c2b2c" d="M427 80c6 9 6 9 2 13-3-9-3-9-2-13"/><path fill="#121112" d="M32 31c-1 2-1 2-10 1 3.911-5.215 4.903-4.398 10-1"/><path fill="#dddc74" d="M407 98c9.75.875 9.75.875 12 2l1-2 1 5c-10.625-2.75-10.625-2.75-14-5"/><path fill="#060606" d="m137 88-1 4 3 1c-8 1.333-8 1.333-8-4 3-1 3-1 6-1"/><path fill="#030402" d="M108 81c1 2 1 2-2 11l-4 1c1-5 1-5 3-6z"/><path fill="#0d0f12" d="m221 15-1 1 4 1c-4 2-4 2-8 0h-6c0-5.599 7.393-3.202 11-2"/><path fill="#000208" d="M183 474c-2 10-2 10-4 10 1.263-11.368 1.263-11.368 4-10"/><path fill="#161616" d="M225 455c11.48 6.56 11.48 6.56 10 11l-5-5-5-4z"/><path fill="#36232c" d="M114 384c7 6 7 6 9 9-5.422 0-9-3.578-9-9"/><path fill="#22210a" d="m499 343 1 3c-8-2-8-2-11-4 1-1 1-1 10 1"/><path fill="#c8d6e5" d="M391 294c-.625 13-.625 13-2 13l-1-8-3 2c2.8-7 2.8-7 6-7"/><path fill="#1c1c1b" d="M119 96a165 165 0 0 1-11 3c1.708-5.124 8.74-9.78 11-3"/><path fill="#121212" d="M211 74c-9.6 11.2-9.6 11.2-12 10l3.938-3.812C209.444 73.48 209.444 73.48 211 74"/><path fill="#030b1e" d="M22 29c-4.805 3.203-9.313 4-15 4 4.662-3.496 9.082-5.973 15-4"/><path fill="#131314" d="m220 454 1 4 2 1c-3 1-3 1-9-2 2-3 2-3 6-3"/><path fill="#161616" d="M114 384c0 2 0 2-8 8 0-4.492 2.888-10.556 8-8"/><path fill="#2c2c2c" d="M30 350c2 3 2 3 3 7l-8-2c1-2 1-2 4-3z"/><path fill="#1f5e9f" d="M218 199c-4.2 8.4-4.2 8.4-9 6 7-6 7-6 9-6"/><path fill="#060501" d="M395 97c8 2 8 2 9 4-7.263 1.21-7.263 1.21-9-4"/><path fill="#f2e9f0" d="M207 95v4c-4-1-4-1-5-4 1-2 1-2 5 0"/><path fill="#1c1a08" d="M110 65c2 4 2 4-1 13-2-4-2-4 1-13"/><path fill="#21558e" d="M11 24c8 1.6 8 1.6 8 5-7 1-7 1-7-1l2-1z"/><path fill="#eafbfc" d="m100 490-9 9c-2.109-4.217 4.94-11.03 9-9"/><path fill="#0b2421" d="M104 471c1 2 1 2-5 9l-3-1z"/><path fill="#faf8d9" d="M333 472c6 0 6 0 7 7-3 0-3 0-4-4z"/><path fill="#77c2ba" d="m110 468-4 5c-2.804-5.609-2.715-8.357 4-5"/><path fill="#cad8e4" d="m210 458 1 4-9-2c1-2 1-2 8-2"/><path fill="#f7f685" d="m291 298 1 2 3 1c4 5 4 5 3 7-11.613-10-11.613-10-7-10"/><path fill="#22548a" d="M416 279c0 2.187-10.488 1.881-12 2l-6 1c3.81-5.715 11.783-3.197 18-3"/><path fill="#c4d5e3" d="M232 247c0 2 0 2-4 3l-1 2c-6 0-6 0-6-2 9-3 9-3 11-3"/><path fill="#235e9f" d="M231 246c-1.958 3.916-7.064 4.016-11 5l-1-2 4-1c1-2 1-2 8-2"/><path fill="#010f28" d="M181 489c3.822 1.91 3.926 7.143 5 11-5.846 0-5-7.072-5-11"/><path fill="#061f3e" d="M178 473c1 4 1 4 0 9l-1 8c-3.35 0-1-6.65-1-10z"/><path fill="#f9f8d6" d="M21 360c3 3 3 3 3 8-8-1-8-1-8-2h6z"/><path fill="#100f10" d="M252 204c4.703 4.703 6 6.35 6 13-6-9-6-9-6-13"/><path fill="#6fcec4" d="M25 156c0 3 0 3-8 3 1-3 1-3 8-3"/><path fill="#c294a8" d="M212 106c-2 4-2 4-5 4 1.294-6.47 1.294-6.47 5-4"/><path fill="#152524" d="M95 480c1 3 1 3-4 8l-3-1z"/><path fill="#e2f9f7" d="M114 464c0 4.365-1.993 9-7 9 2-4 2-4 7-9"/><path fill="#f8f690" d="M312 449v2h2c0 2 0 2-3 2v-2l-5 1c1-4 1-4 6-3"/><path fill="#202020" d="M382 332c5 5 5 5 8 9-5.045-1.261-8-3.434-8-9"/><path fill="#1c1c1c" d="M19 317c2 3 2 3 1 7h-2l-1 2-1-5h2z"/><path fill="#f5f7f9" d="M234 247c-1 5-1 5-7 5 1-3 1-3 5-3 0-2 0-2 2-2"/><path fill="#342e30" d="M206 107c5 5 5 5 8 9-3 0-3 0-9-7z"/><path fill="#d2d166" d="M120 53c5 2 5 2 9 7-3 0-3 0-9-7"/><path fill="#cad8e5" d="M229 6c-1.259 3.776-3.738 7.13-8 5 4-5 4-5 8-5"/><path fill="#1a191a" d="M213 455c0 5.759-5.779 2.633-10 2 0-3.077 8.161-2 10-2"/><path fill="#89c6c0" d="M126 448c2 3 2 3-2 6l1-5-5 1c2-3 2-3 6-2"/><path fill="#2e1922" d="m112 393-7 6c0-4.328 2.665-10.335 7-6"/><path fill="#332a2e" d="M131 386c1 3 1 3-4 8l-4-1 4-2z"/><path fill="#131407" d="M0 344c11 2.875 11 2.875 11 4-11 0-11 0-11-4"/><path fill="#000713" d="M438 325c1 3 1 3-3 7h-3c2-4 2-4 6-7"/><path fill="#1a4069" d="M444 309c1.492 13.672 1.492 13.672-2 16 .875-16 .875-16 2-16"/><path fill="#252224" d="M326 273c-1 4-1 4-3 4l-1 2v-2l-4-2c6-2 6-2 8-2"/><path fill="#1e1e1e" d="M235 256c0 2.421-11.277 1.902-13 2-9.42-4.71 12.069-2.085 13-2"/><path fill="#010b21" d="M209 244c8 5 8 5 11 7-4.77 0-11-.57-11-7"/><path fill="#dddc83" d="m405 95 2 2c-3 1-3 1-12-2 0-2.53 8.525-.198 10 0"/><path fill="#2d2d2c" d="M92 5c-3.714 7.429-3.714 7.429-8 6 6-6 6-6 8-6"/><path d="M337 496c-2 4-2 4-8 4 2.824-2.824 4.03-4 8-4"/><path fill="#1a1f1e" d="M70 489c-5 5-5 5-8 4 6-6 6-6 8-4"/><path fill="#eae76b" d="m301 487-1 6-1-2h-4c1.333-4 1.333-4 6-4"/><path fill="#2c598f" d="M183 463c0 3 0 3-3 8-2-4-2-4 3-8"/><path fill="#e1faf8" d="M101 457c1 2 1 2-2 6h-2v2l-3-1z"/><path fill="#27270d" d="M310 308c-1 6-1 6-3 8-.694-2.776-2.394-10.697 3-8"/><path fill="#faf7d2" d="M291 302c6 4 6 4 7 6-6 0-6 0-7-6"/><path fill="#02102a" d="m212 203-6 7c-1.257-5.028.245-8.918 6-7"/><path fill="#1e2009" d="M305 474c2 4 2 4 0 10-2-4-2-4 0-10"/><path fill="#201e0b" d="M308 465c2 4 2 4 0 10-2-4-2-4 0-10"/><path fill="#1b1a07" d="M313 458c-1 5-1 5-3 8-.694-2.776-2.394-10.697 3-8"/><path fill="#252524" d="M27 341c4.4 6.6 4.4 6.6 1 10-2-8-2-8-1-10"/><path fill="#1f1f1f" d="M317 282c-1 2-1 2-8 3l-2-2c5-2 5-2 10-1"/><path fill="#181717" d="M211 251c6 2 6 2 8 4-3 1-3 1-8-2z"/><path fill="#daf4f3" d="M10 143c-1 4-1 4-10 4 0-1 0-1 7-1 0-3 0-3 3-3"/><path fill="#313031" d="M431 92c4.4 6.6 4.4 6.6 1 10-2-8-2-8-1-10"/><path fill="#f5f3d3" d="m97 80 1 4 6-2c-1 4-1 4-7 3z"/><path fill="#e7e87b" d="M124 67c4 2 4 2 7 6-3.92 0-7-1.605-7-6"/><path fill="#faf8cd" d="M298 473c-1 7-1 7-3 11 0-8 0-8 2-8 0-3 0-3 1-3"/><path fill="#f6f7f7" d="M217 459c-1 4-1 4-3 4v-2l-4-2c0-1 0-1 7 0"/><path fill="#ecead2" d="m18 353 7 1-3 2-2 4z"/><path fill="#f8f8d5" d="M13 336c4.688 0 4 5.552 4 9-2 0-2 0-4-9"/><path fill="#1e1f1e" d="M437 330c1 4 1 4-4 9 0-3 0-3 4-9"/><path fill="#141307" d="M310 313c2 3 2 3 0 9-4.006-2.003-1.643-5.713 0-9"/><path fill="#d7e5f1" d="M243 202c2 0 2 0 3 2h4l-4 2-1 2z"/><path fill="#d6a5bb" d="M208 126c4 2 4 2 2 6l-2 1z"/><path fill="#f4f377" d="M393 100c1 4 1 4-2 7-3 0-3 0-3-2z"/><path fill="#275a92" d="M492 76c4 5 4 5 4 7-5-1-5-1-4-7"/><path fill="#04122b" d="M0 78c4 3 4 3 4 5h2l-1 3c-5-5-5-5-5-8"/><path fill="#1f1f1f" d="M49 6c1 3 1 3 1 6l1 2c-4-2-4-2-4-6z"/><path fill="#e09abb" d="m427 0 1 4 5 1c-1 2-1 2-5 2z"/><path fill="#212121" d="m57 2-6 5c0-4.001 1.968-9.032 6-5"/></svg>