<svg xmlns="http://www.w3.org/2000/svg" width="534" height="535" fill="none" viewBox="0 0 534 535"><path fill="#323232" d="M200.087 135.049c0 5.02-4.072 9.089-9.094 9.089-5.023 0-9.095-4.069-9.095-9.089s4.072-9.09 9.095-9.09c5.022 0 9.094 4.069 9.094 9.09m24.687-12.986c0 5.02-4.072 9.09-9.095 9.09s-9.095-4.07-9.095-9.09 4.072-9.09 9.095-9.09 9.095 4.07 9.095 9.09m24.686-5.194c0 5.02-4.072 9.09-9.095 9.09s-9.095-4.07-9.095-9.09 4.072-9.09 9.095-9.09 9.095 4.07 9.095 9.09m25.985-3.896c0 5.021-4.071 9.09-9.094 9.09s-9.095-4.069-9.095-9.09c0-5.02 4.072-9.089 9.095-9.089s9.094 4.069 9.094 9.089m11.694-21.426c0 3.945-3.2 7.142-7.146 7.142a7.144 7.144 0 0 1-7.146-7.142 7.144 7.144 0 0 1 7.146-7.142 7.144 7.144 0 0 1 7.146 7.142m29.883 5.195c0 3.944-3.2 7.141-7.146 7.141a7.143 7.143 0 0 1-7.146-7.141 7.144 7.144 0 0 1 7.146-7.142 7.144 7.144 0 0 1 7.146 7.142m31.182 11.686a7.143 7.143 0 0 1-7.146 7.142 7.144 7.144 0 0 1-7.146-7.142c0-3.944 3.2-7.142 7.146-7.142a7.144 7.144 0 0 1 7.146 7.142m24.686 14.284a7.143 7.143 0 0 1-7.146 7.142 7.143 7.143 0 1 1 0-14.284 7.144 7.144 0 0 1 7.146 7.142m24.687 19.479c0 3.944-3.2 7.141-7.146 7.141a7.143 7.143 0 0 1-7.146-7.141 7.143 7.143 0 0 1 7.146-7.142 7.144 7.144 0 0 1 7.146 7.142m18.189 23.373a7.143 7.143 0 0 1-7.146 7.142 7.144 7.144 0 0 1-7.146-7.142c0-3.944 3.2-7.142 7.146-7.142a7.144 7.144 0 0 1 7.146 7.142m15.592 24.673c0 3.944-3.2 7.142-7.146 7.142a7.144 7.144 0 0 1-7.146-7.142 7.143 7.143 0 0 1 7.146-7.142 7.144 7.144 0 0 1 7.146 7.142m12.992 29.866a7.143 7.143 0 0 1-7.146 7.142 7.143 7.143 0 1 1 0-14.284 7.144 7.144 0 0 1 7.146 7.142m3.898 29.867a7.144 7.144 0 0 1-7.146 7.142 7.145 7.145 0 0 1-7.146-7.142c0-3.945 3.2-7.142 7.146-7.142a7.143 7.143 0 0 1 7.146 7.142m0 32.463a7.143 7.143 0 0 1-7.146 7.142 7.144 7.144 0 0 1-7.146-7.142c0-3.944 3.2-7.142 7.146-7.142a7.144 7.144 0 0 1 7.146 7.142M444.35 312.3a7.144 7.144 0 0 1-7.146 7.142 7.143 7.143 0 1 1 0-14.284 7.143 7.143 0 0 1 7.146 7.142m-10.394 27.269a7.143 7.143 0 0 1-7.146 7.142 7.143 7.143 0 0 1-7.146-7.142 7.144 7.144 0 0 1 7.146-7.142 7.144 7.144 0 0 1 7.146 7.142m-16.89 27.27c0 3.944-3.2 7.142-7.146 7.142a7.144 7.144 0 0 1-7.146-7.142 7.143 7.143 0 0 1 7.146-7.142 7.144 7.144 0 0 1 7.146 7.142m-19.489 23.373c0 3.945-3.2 7.142-7.146 7.142a7.143 7.143 0 0 1-7.146-7.142 7.144 7.144 0 0 1 7.146-7.142 7.145 7.145 0 0 1 7.146 7.142M374.19 409.69c0 3.945-3.2 7.142-7.146 7.142a7.143 7.143 0 0 1-7.146-7.142 7.144 7.144 0 0 1 7.146-7.142 7.145 7.145 0 0 1 7.146 7.142m-25.986 15.583a7.143 7.143 0 0 1-7.146 7.142 7.144 7.144 0 0 1-7.146-7.142c0-3.944 3.2-7.142 7.146-7.142a7.144 7.144 0 0 1 7.146 7.142m-28.584 10.388a7.143 7.143 0 0 1-7.146 7.142 7.144 7.144 0 0 1-7.146-7.142c0-3.944 3.2-7.142 7.146-7.142a7.144 7.144 0 0 1 7.146 7.142m-29.883 3.896a7.144 7.144 0 0 1-7.146 7.142 7.145 7.145 0 0 1-7.146-7.142c0-3.944 3.2-7.142 7.146-7.142a7.144 7.144 0 0 1 7.146 7.142m-29.883 0a7.144 7.144 0 0 1-7.146 7.142 7.144 7.144 0 0 1-7.146-7.142 7.144 7.144 0 0 1 7.146-7.142 7.144 7.144 0 0 1 7.146 7.142m-29.883-3.896a7.143 7.143 0 0 1-7.146 7.142 7.143 7.143 0 0 1-7.146-7.142 7.144 7.144 0 0 1 7.146-7.142 7.144 7.144 0 0 1 7.146 7.142m-29.884-10.388a7.143 7.143 0 0 1-7.146 7.142 7.144 7.144 0 0 1-7.146-7.142c0-3.944 3.2-7.142 7.146-7.142a7.144 7.144 0 0 1 7.146 7.142m-25.985-15.583a7.143 7.143 0 0 1-7.146 7.142 7.144 7.144 0 0 1-7.146-7.142c0-3.944 3.2-7.142 7.146-7.142a7.144 7.144 0 0 1 7.146 7.142m-22.087-18.179c0 3.944-3.2 7.142-7.146 7.142a7.144 7.144 0 0 1-7.146-7.142 7.144 7.144 0 0 1 7.146-7.142 7.145 7.145 0 0 1 7.146 7.142m-20.789-24.672a7.144 7.144 0 0 1-7.146 7.142 7.144 7.144 0 0 1-7.146-7.142 7.143 7.143 0 0 1 7.146-7.142 7.143 7.143 0 0 1 7.146 7.142m-15.591-24.673a7.143 7.143 0 0 1-7.146 7.142 7.144 7.144 0 0 1-7.146-7.142c0-3.944 3.2-7.142 7.146-7.142a7.144 7.144 0 0 1 7.146 7.142M105.241 312.3c0 3.944-3.2 7.142-7.146 7.142a7.144 7.144 0 0 1-7.146-7.142c0-3.945 3.2-7.142 7.146-7.142a7.144 7.144 0 0 1 7.146 7.142m-6.496-29.867c0 3.945-3.2 7.142-7.146 7.142a7.144 7.144 0 0 1-7.146-7.142c0-3.944 3.2-7.142 7.146-7.142a7.144 7.144 0 0 1 7.146 7.142m2.598-29.866c0 3.944-3.2 7.142-7.146 7.142a7.144 7.144 0 0 1-7.146-7.142c0-3.944 3.2-7.142 7.146-7.142a7.144 7.144 0 0 1 7.146 7.142m5.197-29.867a7.143 7.143 0 0 1-7.146 7.142 7.144 7.144 0 0 1-7.146-7.142c0-3.944 3.2-7.142 7.146-7.142a7.144 7.144 0 0 1 7.146 7.142m7.796-28.568a7.143 7.143 0 0 1-7.146 7.142 7.143 7.143 0 0 1-7.146-7.142 7.144 7.144 0 0 1 7.146-7.142 7.144 7.144 0 0 1 7.146 7.142m16.89-25.971a7.143 7.143 0 0 1-7.146 7.142 7.143 7.143 0 0 1-7.146-7.142 7.143 7.143 0 0 1 7.146-7.141 7.143 7.143 0 0 1 7.146 7.141m18.19-23.373c0 3.944-3.2 7.142-7.146 7.142a7.144 7.144 0 0 1-7.146-7.142 7.143 7.143 0 0 1 7.146-7.142 7.144 7.144 0 0 1 7.146 7.142m24.686-20.777a7.144 7.144 0 0 1-7.146 7.142 7.145 7.145 0 0 1-7.146-7.142c0-3.945 3.2-7.142 7.146-7.142a7.143 7.143 0 0 1 7.146 7.142m24.686-15.583a7.143 7.143 0 0 1-7.146 7.142 7.143 7.143 0 0 1-7.146-7.142 7.144 7.144 0 0 1 7.146-7.142 7.144 7.144 0 0 1 7.146 7.142m28.584-10.388a7.144 7.144 0 0 1-7.146 7.142 7.145 7.145 0 0 1-7.146-7.142c0-3.945 3.2-7.142 7.146-7.142a7.144 7.144 0 0 1 7.146 7.142m29.883-6.493a7.144 7.144 0 0 1-7.146 7.142 7.144 7.144 0 0 1-7.146-7.142 7.144 7.144 0 0 1 7.146-7.142 7.144 7.144 0 0 1 7.146 7.142m11.694-23.373a5.845 5.845 0 0 1-5.847 5.843 5.844 5.844 0 1 1 0-11.687 5.845 5.845 0 0 1 5.847 5.844m19.489-21.426a5.196 5.196 0 0 1-5.197 5.194 5.195 5.195 0 1 1 0-10.389 5.196 5.196 0 0 1 5.197 5.195m38.978 7.791a5.196 5.196 0 0 1-5.197 5.194 5.196 5.196 0 0 1-5.197-5.194 5.196 5.196 0 0 1 5.197-5.194 5.196 5.196 0 0 1 5.197 5.194m33.781 12.985A5.196 5.196 0 0 1 356 72.718a5.196 5.196 0 0 1-5.197-5.194A5.196 5.196 0 0 1 356 62.33a5.196 5.196 0 0 1 5.197 5.194m33.781 18.18a5.196 5.196 0 0 1-5.197 5.194 5.196 5.196 0 0 1-5.197-5.194 5.196 5.196 0 0 1 5.197-5.194 5.196 5.196 0 0 1 5.197 5.194m31.183 23.374a5.196 5.196 0 0 1-5.197 5.194 5.196 5.196 0 0 1-5.198-5.194 5.196 5.196 0 0 1 5.198-5.194 5.195 5.195 0 0 1 5.197 5.194m24.686 31.165a5.196 5.196 0 0 1-5.197 5.194 5.195 5.195 0 1 1 0-10.388 5.195 5.195 0 0 1 5.197 5.194m19.488 29.866a5.196 5.196 0 0 1-5.197 5.195 5.196 5.196 0 0 1-5.197-5.195 5.196 5.196 0 0 1 5.197-5.194 5.195 5.195 0 0 1 5.197 5.194m12.993 36.359a5.195 5.195 0 0 1-5.197 5.194 5.195 5.195 0 0 1-5.197-5.194 5.196 5.196 0 0 1 5.197-5.194 5.195 5.195 0 0 1 5.197 5.194m7.796 36.36a5.196 5.196 0 0 1-5.197 5.194 5.196 5.196 0 0 1-5.197-5.194 5.196 5.196 0 0 1 5.197-5.195 5.196 5.196 0 0 1 5.197 5.195m0 40.254a5.196 5.196 0 0 1-5.197 5.195 5.196 5.196 0 0 1-5.197-5.195 5.196 5.196 0 0 1 5.197-5.194 5.196 5.196 0 0 1 5.197 5.194m-5.197 38.957a5.196 5.196 0 0 1-5.197 5.194 5.195 5.195 0 1 1 0-10.388 5.195 5.195 0 0 1 5.197 5.194m-12.993 36.359a5.195 5.195 0 0 1-5.197 5.194 5.195 5.195 0 0 1-5.197-5.194 5.196 5.196 0 0 1 5.197-5.194 5.196 5.196 0 0 1 5.197 5.194m-18.189 32.464a5.196 5.196 0 0 1-5.197 5.194 5.196 5.196 0 0 1-5.198-5.194 5.196 5.196 0 0 1 5.198-5.194 5.195 5.195 0 0 1 5.197 5.194m-24.687 29.866a5.195 5.195 0 0 1-5.197 5.194 5.195 5.195 0 0 1-5.197-5.194 5.196 5.196 0 0 1 5.197-5.194 5.196 5.196 0 0 1 5.197 5.194m-28.584 24.673a5.195 5.195 0 0 1-5.197 5.194 5.196 5.196 0 0 1-5.197-5.194 5.196 5.196 0 0 1 5.197-5.195 5.196 5.196 0 0 1 5.197 5.195m-33.781 19.477a5.196 5.196 0 0 1-5.197 5.195 5.196 5.196 0 0 1-5.197-5.195 5.196 5.196 0 0 1 5.197-5.194 5.196 5.196 0 0 1 5.197 5.194m-36.379 14.285a5.196 5.196 0 0 1-5.197 5.194 5.196 5.196 0 0 1-5.197-5.194 5.195 5.195 0 0 1 5.197-5.194 5.195 5.195 0 0 1 5.197 5.194m-37.679 5.194a5.196 5.196 0 0 1-5.197 5.194 5.196 5.196 0 0 1-5.197-5.194 5.196 5.196 0 0 1 5.197-5.195 5.196 5.196 0 0 1 5.197 5.195m-37.679 2.597a5.195 5.195 0 0 1-5.197 5.194 5.195 5.195 0 0 1-5.197-5.194 5.195 5.195 0 0 1 5.197-5.194 5.195 5.195 0 0 1 5.197 5.194m-37.679-7.791a5.195 5.195 0 0 1-5.197 5.194 5.196 5.196 0 0 1-5.197-5.194 5.195 5.195 0 0 1 5.197-5.194 5.195 5.195 0 0 1 5.197 5.194m-37.678-11.687a5.196 5.196 0 0 1-5.198 5.194 5.195 5.195 0 0 1-5.197-5.194 5.195 5.195 0 0 1 5.197-5.194 5.196 5.196 0 0 1 5.198 5.194m-31.183-18.18a5.195 5.195 0 0 1-5.197 5.194 5.195 5.195 0 0 1-5.197-5.194 5.196 5.196 0 0 1 5.197-5.194 5.196 5.196 0 0 1 5.197 5.194m-29.883-24.672a5.196 5.196 0 0 1-5.197 5.194 5.195 5.195 0 1 1 0-10.388 5.195 5.195 0 0 1 5.197 5.194m-25.986-28.568a5.195 5.195 0 0 1-5.197 5.194 5.195 5.195 0 1 1 0-10.388 5.195 5.195 0 0 1 5.197 5.194m-18.189-32.464a5.195 5.195 0 0 1-5.197 5.194 5.195 5.195 0 0 1-5.198-5.194 5.196 5.196 0 0 1 5.198-5.194 5.196 5.196 0 0 1 5.197 5.194m-15.592-37.658a5.196 5.196 0 0 1-5.197 5.195 5.196 5.196 0 0 1-5.197-5.195 5.196 5.196 0 0 1 5.197-5.194 5.196 5.196 0 0 1 5.197 5.194m-5.196-36.359a5.195 5.195 0 0 1-5.197 5.194 5.195 5.195 0 0 1-5.198-5.194 5.196 5.196 0 0 1 5.198-5.194 5.196 5.196 0 0 1 5.197 5.194m-2.6-38.956a5.195 5.195 0 0 1-5.197 5.194 5.195 5.195 0 0 1-5.197-5.194 5.195 5.195 0 0 1 5.197-5.194 5.195 5.195 0 0 1 5.197 5.194m7.796-38.957a5.196 5.196 0 0 1-5.197 5.195 5.196 5.196 0 0 1-5.197-5.195 5.196 5.196 0 0 1 5.197-5.194 5.196 5.196 0 0 1 5.197 5.194M70.16 177.9a5.196 5.196 0 0 1-5.196 5.195 5.196 5.196 0 0 1-5.197-5.195 5.196 5.196 0 0 1 5.197-5.194 5.196 5.196 0 0 1 5.197 5.194m19.489-36.359a5.196 5.196 0 0 1-5.198 5.195 5.196 5.196 0 0 1-5.197-5.195 5.196 5.196 0 0 1 5.197-5.194 5.196 5.196 0 0 1 5.197 5.194m23.388-28.568a5.196 5.196 0 0 1-5.198 5.195 5.196 5.196 0 0 1-5.197-5.195 5.196 5.196 0 0 1 5.197-5.194 5.196 5.196 0 0 1 5.198 5.194M144.219 89.6a5.196 5.196 0 0 1-5.197 5.194 5.195 5.195 0 1 1 0-10.389 5.196 5.196 0 0 1 5.197 5.195m29.883-19.479a5.196 5.196 0 0 1-5.197 5.195 5.196 5.196 0 0 1-5.197-5.195 5.196 5.196 0 0 1 5.197-5.194 5.196 5.196 0 0 1 5.197 5.194m37.679-15.582a5.196 5.196 0 0 1-5.197 5.194 5.196 5.196 0 0 1-5.197-5.194 5.196 5.196 0 0 1 5.197-5.194 5.196 5.196 0 0 1 5.197 5.194m37.679-7.791a5.196 5.196 0 0 1-5.197 5.194 5.196 5.196 0 0 1-5.198-5.194 5.196 5.196 0 0 1 5.198-5.195 5.196 5.196 0 0 1 5.197 5.195m16.891-23.374a3.897 3.897 0 0 1-3.898 3.896 3.897 3.897 0 1 1 0-7.792 3.897 3.897 0 0 1 3.898 3.896m40.276 2.597a3.896 3.896 0 0 1-3.897 3.896 3.897 3.897 0 1 1 3.897-3.896m41.577 11.687a3.896 3.896 0 0 1-3.897 3.895 3.897 3.897 0 1 1 3.897-3.895m40.278 15.582a3.897 3.897 0 0 1-3.898 3.896 3.897 3.897 0 1 1 0-7.791 3.897 3.897 0 0 1 3.898 3.895m33.781 24.673a3.897 3.897 0 0 1-3.898 3.895 3.897 3.897 0 1 1 0-7.791 3.897 3.897 0 0 1 3.898 3.896m31.182 28.568a3.896 3.896 0 0 1-3.898 3.895 3.896 3.896 0 1 1 0-7.791 3.897 3.897 0 0 1 3.898 3.896m24.687 35.06a3.897 3.897 0 0 1-3.898 3.896 3.897 3.897 0 1 1 0-7.791 3.897 3.897 0 0 1 3.898 3.895m19.488 37.658a3.896 3.896 0 0 1-3.897 3.896 3.897 3.897 0 1 1 3.897-3.896m10.395 41.554a3.896 3.896 0 0 1-3.898 3.895 3.896 3.896 0 1 1 0-7.791 3.897 3.897 0 0 1 3.898 3.896m5.197 42.851a3.897 3.897 0 0 1-3.898 3.896 3.897 3.897 0 1 1 0-7.791 3.896 3.896 0 0 1 3.898 3.895m-2.599 41.554a3.896 3.896 0 0 1-3.898 3.895 3.896 3.896 0 1 1 0-7.791 3.897 3.897 0 0 1 3.898 3.896m-10.394 40.255a3.896 3.896 0 0 1-3.898 3.895 3.896 3.896 0 1 1 0-7.791 3.897 3.897 0 0 1 3.898 3.896m-18.19 40.255a3.896 3.896 0 0 1-3.898 3.895 3.897 3.897 0 0 1-3.898-3.895 3.897 3.897 0 0 1 3.898-3.896 3.897 3.897 0 0 1 3.898 3.896m-22.088 33.762a3.896 3.896 0 0 1-3.898 3.895 3.896 3.896 0 1 1 0-7.791 3.897 3.897 0 0 1 3.898 3.896m-29.883 31.165a3.896 3.896 0 0 1-3.898 3.895 3.896 3.896 0 1 1 0-7.791 3.897 3.897 0 0 1 3.898 3.896m-35.08 24.672a3.897 3.897 0 0 1-3.898 3.896 3.896 3.896 0 1 1 3.898-3.896m-37.679 18.18a3.896 3.896 0 0 1-3.897 3.895 3.896 3.896 0 1 1 3.897-3.895m-40.277 11.687a3.896 3.896 0 0 1-3.898 3.895 3.896 3.896 0 1 1 0-7.791 3.897 3.897 0 0 1 3.898 3.896m-41.577 3.895a3.896 3.896 0 0 1-3.897 3.896 3.897 3.897 0 1 1 3.897-3.896m-41.576-2.597a3.897 3.897 0 0 1-3.898 3.896 3.897 3.897 0 1 1 0-7.791 3.896 3.896 0 0 1 3.898 3.895m-42.877-10.389a3.896 3.896 0 0 1-3.897 3.896 3.897 3.897 0 1 1 3.897-3.896m-37.678-15.582a3.897 3.897 0 0 1-3.898 3.896 3.897 3.897 0 1 1 0-7.791 3.896 3.896 0 0 1 3.898 3.895m-35.08-24.672a3.896 3.896 0 0 1-3.898 3.895 3.896 3.896 0 1 1 0-7.791 3.897 3.897 0 0 1 3.898 3.896M88.35 425.922a3.897 3.897 0 0 1-3.897 3.896 3.897 3.897 0 1 1 3.897-3.896m-25.985-32.463a3.896 3.896 0 0 1-3.898 3.895 3.896 3.896 0 1 1 0-7.791 3.897 3.897 0 0 1 3.898 3.896m-18.19-38.957a3.897 3.897 0 0 1-3.898 3.896 3.897 3.897 0 1 1 3.898-3.896m-11.693-41.553a3.897 3.897 0 0 1-3.898 3.896 3.897 3.897 0 1 1 3.898-3.896m-3.898-41.553a3.896 3.896 0 0 1-3.898 3.895 3.896 3.896 0 1 1 0-7.791 3.897 3.897 0 0 1 3.898 3.896m1.299-41.554a3.897 3.897 0 0 1-3.898 3.896 3.897 3.897 0 1 1 3.898-3.896m10.394-41.553a3.896 3.896 0 0 1-3.898 3.895 3.896 3.896 0 1 1 0-7.791 3.897 3.897 0 0 1 3.898 3.896m18.19-38.957a3.897 3.897 0 0 1-3.898 3.896 3.897 3.897 0 1 1 3.898-3.896m23.387-33.762a3.897 3.897 0 0 1-3.898 3.896 3.897 3.897 0 1 1 3.898-3.896m28.584-32.463a3.897 3.897 0 0 1-3.898 3.895 3.897 3.897 0 1 1 0-7.79 3.897 3.897 0 0 1 3.898 3.895m35.08-23.374a3.897 3.897 0 0 1-3.898 3.896 3.896 3.896 0 1 1 3.898-3.896m37.679-19.478a3.897 3.897 0 0 1-3.898 3.895 3.897 3.897 0 1 1 0-7.79 3.897 3.897 0 0 1 3.898 3.895m40.278-11.687a3.897 3.897 0 0 1-3.898 3.896 3.897 3.897 0 1 1 0-7.792 3.897 3.897 0 0 1 3.898 3.896m16.89-25.971a2.598 2.598 0 1 1-5.195-.001 2.598 2.598 0 0 1 5.195.001m46.774 0a2.598 2.598 0 1 1-5.197-.002 2.598 2.598 0 0 1 5.197.002m45.474 7.791a2.598 2.598 0 1 1-5.195 0 2.598 2.598 0 0 1 5.195 0m42.876 14.285a2.598 2.598 0 1 1-5.198-.002 2.598 2.598 0 0 1 5.198.002m41.576 22.075a2.597 2.597 0 1 1-5.195-.001 2.597 2.597 0 0 1 5.195 0m36.38 28.569a2.597 2.597 0 1 1-5.195-.001 2.597 2.597 0 0 1 5.195 0m29.883 33.763a2.598 2.598 0 1 1-5.195-.001 2.598 2.598 0 0 1 5.195.001m24.687 40.255a2.598 2.598 0 1 1-5.197-.003 2.598 2.598 0 0 1 5.197.003m16.89 42.852a2.598 2.598 0 1 1-5.197-.003 2.598 2.598 0 0 1 5.197.003m7.795 46.747a2.598 2.598 0 1 1-5.195-.001 2.598 2.598 0 0 1 5.195.001m1.3 46.748a2.598 2.598 0 1 1-5.196-.002 2.598 2.598 0 0 1 5.196.002m-6.496 44.15a2.598 2.598 0 0 1-5.197 0 2.598 2.598 0 0 1 5.197 0m-15.592 44.151a2.598 2.598 0 1 1-5.195-.001 2.598 2.598 0 0 1 5.195.001m-23.386 40.254a2.599 2.599 0 1 1-5.197-.001 2.599 2.599 0 0 1 5.197.001m-28.584 36.36a2.598 2.598 0 0 1-5.197 0 2.598 2.598 0 0 1 5.197 0m-33.781 29.866a2.598 2.598 0 1 1-5.196-.002 2.598 2.598 0 0 1 5.196.002m-40.278 24.673a2.598 2.598 0 1 1-5.195-.001 2.598 2.598 0 0 1 5.195.001m-42.876 16.881a2.598 2.598 0 1 1-5.195-.001 2.598 2.598 0 0 1 5.195.001m-45.474 9.089a2.598 2.598 0 1 1-5.196 0 2.598 2.598 0 0 1 5.196 0m-46.774 1.299a2.598 2.598 0 1 1-5.196-.002 2.598 2.598 0 0 1 5.196.002m-44.175-6.493a2.598 2.598 0 1 1-5.195-.001 2.598 2.598 0 0 1 5.195.001m-44.175-15.582a2.598 2.598 0 1 1-5.196-.002 2.598 2.598 0 0 1 5.196.002m-41.577-22.076a2.597 2.597 0 0 1-2.599 2.597 2.597 2.597 0 1 1 0-5.194 2.6 2.6 0 0 1 2.599 2.597m-35.08-29.866a2.598 2.598 0 1 1-5.196-.002 2.598 2.598 0 0 1 5.196.002M54.57 423.325a2.597 2.597 0 0 1-2.6 2.597 2.597 2.597 0 1 1 0-5.194 2.6 2.6 0 0 1 2.6 2.597m-24.687-38.956a2.598 2.598 0 1 1-5.196-.002 2.598 2.598 0 0 1 5.196.002m-15.591-42.852a2.598 2.598 0 1 1-5.196-.002 2.598 2.598 0 0 1 5.196.002m-9.095-45.449a2.598 2.598 0 1 1-5.196-.002 2.598 2.598 0 0 1 5.196.002m0-45.449a2.598 2.598 0 1 1-5.196-.002 2.598 2.598 0 0 1 5.196.002m6.497-46.748a2.597 2.597 0 0 1-2.599 2.597 2.597 2.597 0 1 1 0-5.194 2.6 2.6 0 0 1 2.599 2.597m14.291-44.15a2.598 2.598 0 1 1-5.196-.002 2.598 2.598 0 0 1 5.196.002m22.088-40.255a2.598 2.598 0 1 1-5.196-.002 2.598 2.598 0 0 1 5.196.002m29.884-36.359a2.598 2.598 0 1 1-5.196-.002 2.598 2.598 0 0 1 5.196.002m33.78-31.165a2.598 2.598 0 1 1-5.199-.001 2.598 2.598 0 0 1 5.199 0m40.278-23.373a2.598 2.598 0 1 1-5.197-.003 2.598 2.598 0 0 1 5.197.003m42.875-16.881a2.598 2.598 0 1 1-5.197-.002 2.598 2.598 0 0 1 5.197.002M304.029 70.77a5.845 5.845 0 0 1-5.846 5.844 5.845 5.845 0 0 1-5.847-5.843 5.845 5.845 0 0 1 5.847-5.844 5.844 5.844 0 0 1 5.846 5.844m35.08 9.089a5.844 5.844 0 0 1-5.846 5.844 5.845 5.845 0 0 1-5.847-5.844 5.845 5.845 0 0 1 5.847-5.843 5.844 5.844 0 0 1 5.846 5.843m31.183 15.583a5.845 5.845 0 0 1-5.847 5.843 5.844 5.844 0 1 1 0-11.686 5.845 5.845 0 0 1 5.847 5.843m27.285 18.18a5.845 5.845 0 0 1-5.847 5.843 5.845 5.845 0 0 1-5.847-5.843 5.845 5.845 0 0 1 5.847-5.844 5.845 5.845 0 0 1 5.847 5.844m24.686 24.672a5.845 5.845 0 0 1-5.847 5.843 5.845 5.845 0 0 1-5.847-5.843 5.845 5.845 0 0 1 5.847-5.843 5.845 5.845 0 0 1 5.847 5.843m20.788 27.27a5.844 5.844 0 0 1-5.847 5.843 5.844 5.844 0 1 1 0-11.687 5.845 5.845 0 0 1 5.847 5.844m16.891 29.866a5.845 5.845 0 0 1-5.847 5.843 5.845 5.845 0 0 1-5.847-5.843 5.845 5.845 0 0 1 5.847-5.843 5.845 5.845 0 0 1 5.847 5.843m5.196 35.061a5.844 5.844 0 0 1-5.846 5.843 5.845 5.845 0 0 1-5.847-5.843 5.845 5.845 0 0 1 5.847-5.844 5.844 5.844 0 0 1 5.846 5.844m5.197 32.463a5.844 5.844 0 0 1-5.846 5.843 5.845 5.845 0 0 1-5.847-5.843 5.845 5.845 0 0 1 5.847-5.843 5.844 5.844 0 0 1 5.846 5.843m-2.598 35.061a5.844 5.844 0 0 1-5.846 5.843 5.845 5.845 0 0 1-5.847-5.843 5.846 5.846 0 0 1 5.847-5.844 5.845 5.845 0 0 1 5.846 5.844m-9.095 35.06a5.844 5.844 0 0 1-5.846 5.844 5.845 5.845 0 0 1-5.847-5.844 5.845 5.845 0 0 1 5.847-5.843 5.844 5.844 0 0 1 5.846 5.843m-12.992 31.166a5.845 5.845 0 0 1-5.847 5.843 5.845 5.845 0 0 1-5.847-5.843 5.845 5.845 0 0 1 5.847-5.844 5.845 5.845 0 0 1 5.847 5.844m-19.489 28.568a5.845 5.845 0 0 1-5.847 5.843 5.845 5.845 0 0 1-5.847-5.843 5.845 5.845 0 0 1 5.847-5.844 5.845 5.845 0 0 1 5.847 5.844m-24.687 24.672a5.844 5.844 0 0 1-5.846 5.843 5.845 5.845 0 0 1-5.847-5.843 5.846 5.846 0 0 1 5.847-5.844 5.845 5.845 0 0 1 5.846 5.844M372.89 436.96a5.844 5.844 0 0 1-5.846 5.843 5.845 5.845 0 0 1-5.847-5.843 5.846 5.846 0 0 1 5.847-5.844 5.845 5.845 0 0 1 5.846 5.844m-29.883 15.583a5.844 5.844 0 0 1-5.846 5.843 5.845 5.845 0 0 1-5.847-5.843 5.845 5.845 0 0 1 5.847-5.844 5.844 5.844 0 0 1 5.846 5.844m-32.482 9.089a5.844 5.844 0 0 1-5.846 5.844 5.845 5.845 0 0 1-5.847-5.844 5.845 5.845 0 0 1 5.847-5.843 5.844 5.844 0 0 1 5.846 5.843m-37.678 2.597a5.846 5.846 0 0 1-5.847 5.844 5.846 5.846 0 0 1-5.847-5.844 5.845 5.845 0 0 1 5.847-5.843 5.845 5.845 0 0 1 5.847 5.843m-32.482-2.597a5.845 5.845 0 0 1-5.847 5.844 5.845 5.845 0 0 1-5.847-5.844 5.845 5.845 0 0 1 5.847-5.843 5.845 5.845 0 0 1 5.847 5.843m-33.781-9.089a5.845 5.845 0 0 1-5.847 5.843 5.844 5.844 0 1 1 0-11.687 5.845 5.845 0 0 1 5.847 5.844m-31.183-14.285a5.844 5.844 0 0 1-5.846 5.844 5.845 5.845 0 0 1-5.847-5.844 5.845 5.845 0 0 1 5.847-5.843 5.844 5.844 0 0 1 5.846 5.843m-28.584-19.477a5.844 5.844 0 0 1-5.847 5.843 5.844 5.844 0 1 1 0-11.687 5.845 5.845 0 0 1 5.847 5.844m-24.685-23.374a5.845 5.845 0 0 1-5.847 5.843 5.845 5.845 0 0 1-5.847-5.843 5.845 5.845 0 0 1 5.847-5.844 5.845 5.845 0 0 1 5.847 5.844m-19.49-27.27a5.845 5.845 0 0 1-5.846 5.844 5.845 5.845 0 0 1-5.847-5.844 5.845 5.845 0 0 1 5.847-5.843 5.844 5.844 0 0 1 5.846 5.843M88.35 336.972a5.846 5.846 0 0 1-5.846 5.844 5.846 5.846 0 0 1-5.847-5.844 5.845 5.845 0 0 1 5.847-5.843 5.845 5.845 0 0 1 5.846 5.843M76.657 303.21a5.845 5.845 0 0 1-5.847 5.843 5.845 5.845 0 0 1-5.847-5.843 5.845 5.845 0 0 1 5.847-5.843 5.845 5.845 0 0 1 5.847 5.843m0-33.762a5.845 5.845 0 0 1-5.847 5.843 5.845 5.845 0 0 1-5.847-5.843 5.845 5.845 0 0 1 5.847-5.844 5.845 5.845 0 0 1 5.847 5.844m2.598-35.061a5.845 5.845 0 0 1-5.846 5.843 5.845 5.845 0 0 1-5.847-5.843 5.845 5.845 0 0 1 5.847-5.843 5.845 5.845 0 0 1 5.846 5.843m7.796-33.762a5.845 5.845 0 0 1-5.846 5.843 5.845 5.845 0 0 1-5.847-5.843 5.845 5.845 0 0 1 5.847-5.843 5.845 5.845 0 0 1 5.846 5.843m12.993-31.165a5.845 5.845 0 0 1-5.847 5.843 5.845 5.845 0 0 1-5.847-5.843 5.846 5.846 0 0 1 5.847-5.844 5.846 5.846 0 0 1 5.847 5.844m18.19-28.568a5.845 5.845 0 0 1-5.847 5.843 5.845 5.845 0 0 1-5.847-5.843 5.845 5.845 0 0 1 5.847-5.843 5.845 5.845 0 0 1 5.847 5.843m25.985-23.374a5.846 5.846 0 0 1-5.847 5.844 5.846 5.846 0 0 1-5.847-5.844 5.845 5.845 0 0 1 5.847-5.843 5.845 5.845 0 0 1 5.847 5.843m27.285-20.777a5.846 5.846 0 0 1-5.847 5.844 5.846 5.846 0 0 1-5.847-5.844 5.845 5.845 0 0 1 5.847-5.843 5.845 5.845 0 0 1 5.847 5.843m31.182-16.881a5.845 5.845 0 0 1-5.847 5.844 5.845 5.845 0 0 1-5.847-5.844 5.845 5.845 0 0 1 5.847-5.843 5.845 5.845 0 0 1 5.847 5.843m33.781-9.09a5.845 5.845 0 0 1-5.847 5.844 5.844 5.844 0 1 1 0-11.687 5.845 5.845 0 0 1 5.847 5.844m64.964 46.098c0 5.02-4.072 9.09-9.095 9.09s-9.095-4.07-9.095-9.09 4.072-9.09 9.095-9.09 9.095 4.07 9.095 9.09m25.985 9.09c0 5.02-4.072 9.089-9.095 9.089s-9.095-4.069-9.095-9.089 4.072-9.09 9.095-9.09 9.095 4.069 9.095 9.09m24.686 9.09c0 5.02-4.072 9.089-9.095 9.089s-9.095-4.069-9.095-9.089 4.072-9.09 9.095-9.09 9.095 4.069 9.095 9.09m22.087 14.283c0 5.021-4.071 9.09-9.094 9.09s-9.095-4.069-9.095-9.09c0-5.02 4.072-9.089 9.095-9.089s9.094 4.069 9.094 9.089m18.191 18.18c0 5.02-4.072 9.09-9.095 9.09s-9.095-4.07-9.095-9.09 4.072-9.09 9.095-9.09 9.095 4.07 9.095 9.09m15.591 24.672c0 5.021-4.072 9.09-9.095 9.09s-9.095-4.069-9.095-9.09c0-5.02 4.072-9.089 9.095-9.089s9.095 4.069 9.095 9.089m12.992 23.374c0 5.02-4.072 9.09-9.095 9.09s-9.094-4.07-9.094-9.09 4.071-9.09 9.094-9.09 9.095 4.07 9.095 9.09m5.198 24.672c0 5.021-4.072 9.09-9.095 9.09s-9.095-4.069-9.095-9.09c0-5.02 4.072-9.089 9.095-9.089s9.095 4.069 9.095 9.089m3.897 25.971c0 5.021-4.072 9.09-9.095 9.09s-9.095-4.069-9.095-9.09c0-5.02 4.072-9.089 9.095-9.089s9.095 4.069 9.095 9.089m-3.897 28.568c0 5.021-4.072 9.09-9.095 9.09s-9.095-4.069-9.095-9.09c0-5.02 4.072-9.089 9.095-9.089s9.095 4.069 9.095 9.089m-5.198 24.673c0 5.02-4.072 9.089-9.095 9.089s-9.094-4.069-9.094-9.089 4.071-9.09 9.094-9.09 9.095 4.07 9.095 9.09m-12.992 24.672c0 5.02-4.072 9.09-9.095 9.09s-9.095-4.07-9.095-9.09 4.072-9.09 9.095-9.09 9.095 4.07 9.095 9.09m-15.591 20.777c0 5.02-4.072 9.09-9.095 9.09s-9.095-4.07-9.095-9.09 4.072-9.09 9.095-9.09 9.095 4.07 9.095 9.09m-20.789 18.179c0 5.02-4.072 9.09-9.095 9.09s-9.095-4.07-9.095-9.09 4.072-9.09 9.095-9.09 9.095 4.07 9.095 9.09m-22.087 15.583c0 5.02-4.072 9.09-9.095 9.09s-9.095-4.07-9.095-9.09 4.072-9.09 9.095-9.09 9.095 4.07 9.095 9.09m-20.789 11.687c0 5.02-4.072 9.09-9.095 9.09s-9.095-4.07-9.095-9.09 4.072-9.09 9.095-9.09 9.095 4.07 9.095 9.09m-25.985 6.493c0 5.02-4.072 9.089-9.095 9.089s-9.095-4.069-9.095-9.089 4.072-9.09 9.095-9.09 9.095 4.069 9.095 9.09m-27.285 2.597c0 5.02-4.071 9.09-9.094 9.09s-9.095-4.07-9.095-9.09 4.072-9.09 9.095-9.09 9.094 4.07 9.094 9.09m-27.285-2.597c0 5.02-4.071 9.089-9.094 9.089s-9.095-4.069-9.095-9.089 4.072-9.09 9.095-9.09 9.094 4.069 9.094 9.09m-25.985-6.493c0 5.02-4.072 9.09-9.095 9.09s-9.095-4.07-9.095-9.09 4.072-9.09 9.095-9.09 9.095 4.07 9.095 9.09m-22.087-11.687c0 5.02-4.072 9.09-9.095 9.09s-9.095-4.07-9.095-9.09 4.072-9.09 9.095-9.09 9.095 4.07 9.095 9.09M178 383.07c0 5.02-4.072 9.09-9.095 9.09s-9.095-4.07-9.095-9.09 4.072-9.09 9.095-9.09 9.095 4.07 9.095 9.09m-18.19-18.179c0 5.02-4.072 9.09-9.095 9.09s-9.095-4.07-9.095-9.09 4.072-9.09 9.095-9.09 9.095 4.07 9.095 9.09m-15.591-20.777c0 5.02-4.072 9.09-9.095 9.09s-9.095-4.07-9.095-9.09 4.072-9.09 9.095-9.09 9.095 4.07 9.095 9.09m-9.095-24.672c0 5.02-4.072 9.089-9.095 9.089s-9.095-4.069-9.095-9.089 4.072-9.09 9.095-9.09 9.095 4.07 9.095 9.09m-9.095-24.673c0 5.021-4.072 9.09-9.095 9.09s-9.095-4.069-9.095-9.09c0-5.02 4.072-9.089 9.095-9.089s9.095 4.069 9.095 9.089m-2.598-28.568c0 5.02-4.072 9.09-9.095 9.09s-9.095-4.07-9.095-9.09 4.072-9.089 9.095-9.089 9.095 4.069 9.095 9.089m2.598-25.971c0 5.021-4.072 9.09-9.095 9.09s-9.095-4.069-9.095-9.09c0-5.02 4.072-9.089 9.095-9.089s9.095 4.069 9.095 9.089m9.095-24.672c0 5.02-4.072 9.09-9.095 9.09s-9.095-4.07-9.095-9.09 4.072-9.09 9.095-9.09 9.095 4.07 9.095 9.09m9.095-23.374c0 5.021-4.072 9.09-9.095 9.09s-9.095-4.069-9.095-9.09c0-5.02 4.072-9.089 9.095-9.089s9.095 4.069 9.095 9.089m15.591-24.672c0 5.02-4.072 9.09-9.095 9.09s-9.095-4.07-9.095-9.09 4.072-9.09 9.095-9.09 9.095 4.07 9.095 9.09m18.19-18.18c0 5.021-4.072 9.09-9.095 9.09s-9.095-4.069-9.095-9.09c0-5.02 4.072-9.089 9.095-9.089s9.095 4.069 9.095 9.089"/></svg>