<svg width="30" height="36" fill="#fff" viewBox="0 0 3000 3600" xmlns="http://www.w3.org/2000/svg"><path d="M297 1082c-20 0-26 0-35 33l-15 56c-5 18-20 34-42 34h-97c-27 0-44-25-51-41L8 1049c-11-26-11-54 0-80l49-114c7-17 24-42 51-42h97c22 0 37 16 42 34l15 56c9 33 15 33 35 33h144c-9-189-24-385-49-590-2-20 10-32 20-39S912 0 1342 0s920 300 930 307 22 19 20 39c-24 200-37 414-45 635-675-69-983 274-982 617 1 294 125 392 158 425s30 39-41 69c-87 38-175 131-163 313 25 379 329 611 851 663-129 130-398 397-550 456-138 51-218 51-356-1-191-72-566-474-616-523-39-40-98-139-100-208-1-37-2-74-2-111H342c-20 0-26 0-35 33l-15 56c-5 18-20 34-42 34h-97c-27 0-44-25-51-41l-49-115c-11-26-11-54 0-80l49-114c7-17 24-42 51-42h97c22 0 37 16 42 34l15 56c9 33 15 33 35 33h102c-1-223 3-443 7-666H347c-20 0-26 0-35 33l-15 56c-5 18-20 34-42 34h-97c-27 0-44-25-51-41l-49-115c-11-26-11-54 0-80l49-114c7-17 24-42 51-42h97c22 0 37 16 42 34l15 56c9 33 15 33 35 33h105c3-208 3-421-5-641zm1074 1257c28-142 285-220 494-100 175 101 39 359 448 308 166-21 221-238-9-284-403-81-804-104-866-484-45-276 118-480 333-555 196-68 829-124 1028 130 96 122 165 242 149 309-28 117-364 176-567 3-34-29-6-175-271-175-121 0-151 45-151 145s138 131 308 148c722 73 845 477 649 824-249 440-1109 321-1317 167-125-92-257-287-228-436z"/></svg>
